<?xml version="1.0" encoding="UTF-8"?>
<svg version="1.1" viewBox="0 0 1024 1024" width="1024" height="1024" xmlns="http://www.w3.org/2000/svg">
<path transform="translate(0)" d="m0 0h1024v1024h-1024z" fill="#08062E"/>
<path transform="translate(0)" d="m0 0h1024v1024h-1024zm264 135-19 3-18 5-17 7-17 10-16 13-11 11-10 13-8 13-6 12-8 23-4 22-2 17v449l1 22 4 26 4 17 5 14 8 16 11 16 10 11 9 9h2v2l14 10 14 8 18 8 13 4 22 4 12 1 59 1h307l106-1 16-2 17-3 22-8 23-12 16-12 17-17 6-8 5-9 8-16 6-16 5-21 2-15 2-42v-434l-2-26-6-25-6-15-10-19-10-13-11-12-11-9-11-8-16-9-13-6-5-2-9-2-15-3-16-2z" fill="#090718"/>
<path transform="translate(510,249)" d="m0 0h27l26 3 19 4-3 3-10-1-21-3-21-1-22 1h15l9 2 12 1 1 2 20 5 5 1 1 2 8 4v-2l4 2 12 4 12 5 15 7v2l5 2 16 9 12 7 7 6 4 4 2 5 8 7 5 4 7 8 8 8v2h2l11 14 4 5-1 2-10-10v-2h-2l-7-8-12-12-11-9-10-8-11-8-11-7-4-1 11 7 17 12v2l4 2 10 9 10 10-1 2-8-7-2-1 3 6v2h2v2h2v3h2l2 5 2 1v3h2l4 7 3 2v2h2l4 5 6 5v2h3v2l5 2 2 1v2l5 2 13 6 3 1 1 4 3-1v2l9 2 10 6 6 2 6 4 5 2v2l6 1 5 3 4 4 11 7 9 11 3 7 3 10v7l1 4h-2l1 6h-2l1 4-3 7-3 9-4 7h-2l-2 6-2 3-1 5-3 1-1 4-4 6-2 1-2 4h-2l-1 3-4 4-4 5-5 5-3 4v3l-14 12-5 3-3 3h-2v2l-6 4h-3v2l-9 6-11 7-16 10-4 3 22-13 14-9h2v-2l6-4 10-6 10-7 3 1-2 6-5 5-22 14-11 8-30 19-5 1-3 3-10 4-23 12-35 15-13 5-12 2-10 4-35 10-14 3h-3v2l2 1-3 2v-3l-36 7-21 3-28 2-4 1-31 1-11-1v-1l25-2h-14l-1-1-47-2-8-3 1-3-16-1-1-2h3v-2l-8-1-13-3-6-2-15-4-1-3 1-3-5-2-7-2-3-1v-3l-10-3-16-5-3-2-2-4-12-5-11-6-8-7-8-6-5-5-2-1-1-5-3-4-1-6 6 4 5 6 10 8 10 6v3l7 1v-3h2v-2l11 1 5 1v-2h-3v-2l-5-2-1-2 1-2-4-1-9-7-7-6-7-10-4-8-2-7v-13l3-11 3-10 3-1 2-6h2l1-7h3l2-5 4-6 3-2 6-7 11-9 2-3h2v-2h2l2-4 9-11 8-16 7-18 10-30 3-7 2-9 2-5-2-1 2-1 2-7 1-2h2l1-6 1-2h2l2-8h2l1-4 3-5 1-4 4-4 3-7 2-1 4-7 4-5h-2l-2 4-12 15-8 12-8 13-6 10-11 23-7 14-1-2 8-19 10-19 13-22 9-14h2l2-5 2-3h2v-2h2l2-5 3-1 2-4 7-8 15-15 13-10 14-10 17-9 6-3 1-3 23-10 19-6 15-4 25-4z" fill="#8F1ED9"/>
<path transform="translate(464,70)" d="m0 0 17 2 17 1 19-1 5 1 4-1 17 2 7-2 24 1 9 1 3 1h9l5 1h11l13 1 4-2 6 3 1 1h13l7 1 15-1 5-4v2l4 1 1 2h-2l-1 3 4-1v2l4-1h3 10l7 3 1-3h6l11 3 4 1 4 2h10l7 5 9 1v2h10v-2l3-3h3v9l6 2 1 3 14 3 4 2v2l12 3 3 2v2l3 1v2l6 2 7 2 5 2v4l10 3 4 5 5 4 1 6 5 2 5 5v2l6 2 5 8 1 3 6 1 1 4 4 1v5h2v2h2l3 5 4 2 5 12 2 5h2l6 13 4 4 5 16 2 4 3 13 3 3v5l2 1 2 8 5 14 4 5 3 24 2 11 1 4h3l-1 7 1 10-1 6 3 6-1 2v7l1 4v7l2 7-1 9 3 5-1 7 2 8-1 9 4 7-1 5-1 9v6 3l2 2-1 10 1 3-1 9 2 17 3-1 1 10-5 1v6l3 1-5 5v5l3-1v2l2 1h-2l-1 3h-1l-1 7 2 1v12l-1 3 1 3-1 3 2 2-1 2h-4v12l-1 5-1 7v23l-2 3-1 12 1 5-1 3h2l1-3h2l1 5-5 4h-2v-3l-2 4v11l-3 10-2 8v10l1 7-4 1-1 7-2 4-2 17-2 4-1 12-1 4-2 2v8h-3l-2 11-4 9h-2l-2 10-7 10-2 9-2 1-2 6-2 4v10h-2v2h-2l-4-4-4 1v7l1 3-3 5h3v3l-6-1-1 2-7-2-1-3 1-6h-2l1-6h2v-4h-2l3-11 5-16 4-25 2-42v-434l-2-26-6-25-6-15-10-19-10-13-10-11-11-9-11-8-16-9-13-6-5-2-9-2-15-3-16-2h-487l-19 3-18 5-17 7-17 10-16 13-10 10-10 13-8 13-6 12-8 23-4 22-2 17v449l1 22 4 26 4 17 5 14 8 16 2 7 2 3-1 6-4-1v2l-7 1-4-7v-5l-3-2-2-2-1 2-1-3-4 1-1-3-4-1-2-2-2-3v-2l-2-2-5-3-2-6-7-8-3-7-2-4 1-6-4-4-2-4-6-2v-4l3-1-1-5-2-3-2-9-3-8-3-4v-2l-4-1-6-11v-12l2-10 3-3 1-9-2-13-1-1v-11l-1-10-2-5-2-10-2-7-2-5 1-8 1-5-2-9-1-18 2-10-2-5v-11l-1-1v-12l1-6v-7l-1-7v-16h-3v-5l3-3 1-10-1-15 2-6-2-1 1-4-3-1 1-16 4-7v-38l2-6v-7l1-5-1-5 1-6v-7l2-6v-10l1-3 1-10-1-8 2-4 1-14 2-4 1-11 1-3-2-5 2-12 3-2 2-10 4-5v-7l3-10 2-6 3-3h2l3-12 4-6 2-6 5-14 3-5 3-7 3-3 2-4h2l1-4h2v-2l8-4 5-6 6-3 2-6 8-4 1-2h3l2-6h6v-3l-4-1v-5l4-1 4 3 5-2 3-3 11-1 1-7 9-3 7-2 5-3 5-5 9-2 4-2 7 1 5-3 13-4 2-2 5-1 6 1 4-2 12-2h8l6-1 9-3 8-1 9-3h15l9-3 12-3 4-4 4 1 1 1 15-2h12l15-2 13 2 6-2 9 1 12-3h8z" fill="#070522"/>
<path transform="translate(515,320)" d="m0 0 22 2 10 2 6 2 14 3h1l3-1 20 9 15 9 13 10 10 9 12 12 10 13 7 11 12 23 7 21 4 18 1 8v17l-2 25-3 9-3 10-5 12-7 13-8 11-7 8h-2l-2 4-2 2h-3v3l-5 3-1 2-7 4-19 10-12 7-15 6-8 4-10 1v2h-5v2l-17 3-49 7-16-1-15-1-20-4-19-7-19-10-10-8-10-9-9-10-8-13-8-16-7-21-3-18v-27l1-5 1-12 2-12 1-1 4-20 3-7 7-17 3-6 2-1 2-6 7-10 2-4 3-5 4-4 6-7h2l2-4 9-9 19-14h3v-2l11-6 16-8 3 1v-2l5-1v-2l16-3 3-1z" fill="#0C0940"/>
<path transform="translate(513,208)" d="m0 0h42l5 1 29 5 5 2 9 2 1 2-9 1-4 1 5 2v2l8 1 12 6 5 3 6 2v2l10 3 6 3v2h4l2 3 6 2v2l6 1 11 8 5 3v2l4 1 4 2 5 5 8 6 5 5 7 5 1 4-4-1-3-3-1-3-9-3-8-7-3-1v-2l-4-1-6-5-1 5 5 2 5 3v2l5 2 5 6v2h4l1 3 5 5 2 7h2l2 6h2v2h2v2l2 1 3 3 3 2 5 11v2l3 1 9 14 3 1 1 4h2v2h3v2l3 1 5 5 7 6h3v2l5 1 2 4 6 2 5 6 2-1v2l27 9 6 3-1 3-1 1 6 4v2h3v2h4l3 5 4 4v2l4 2 4 3 7 9 4 5v2h2l1 6 2 1-1 2h2l1 3-1 2h2l1 7 1 3v3l2 1 1 2 1 7 1 6-2 5 1 2h-2v6l-4 9-3 4-3 2-1 2h-2v4h-2v4h-2l-1 4h-2l-2 5-6 7h-2v2l-3 2-2 5-5 5-5 6-8 7-7 7-6 5-4 4-11 8-5 6-3 5-9 3-5 3-4 4-5 2-1 3-8 7-4 2h-3v3l-4 1-2 5-3 1v2l-4 1v4h-2l-2 5-3 4h-2l-2 6h-2l-1 3h-2l-2 6-4 4h-2l-2 4-2 3h-2l-2 4-4 5-2 3-4 5-3 3h-3v2h-2v2h-2l-1 5-11 7-3 3-6 3h-2l-1 3-17 10-10 5-9 5-18 8h-3l-1 2-13 4-17 5-9 3-14 2-3 1h-2l-16 1h-13l-2 1-7-1-4-1-6-2-16-2-16-3-14-4-11-4v-2l-10-1-16-9-5-2 1-5h-2v-2l-8-1-5-2h-5v-3l-6 2-5-2h-5l-3-1-12-3-2-5h-2v-2h-12l-7-1-6-3-6-2-15-3v-2h-4v-2l2-1-1-2-4-4-4-2-7-2-12-4-4-1v-2l-3 1v-2l-3 1-4-3-7-2-5-3-10-3-10-6-1-4-1-3-5-2-7-5v-2l-4-2-5-2-1-3-5-2-4-4v-2l-5-2-1-3-2-1v-2h-2v-2h-2l-6-10-2-4-2-5-3-18v-9l2-10 1-6 5-11v-2l2-1 3-8 4-4 3-5h2l2-5 2-2 3-5 5-3 2-1 2-5 4-7 4-4v-2h2l2-5 8-8v-2l2-1 3-5 1-2h3v-2h-6l-7 7-5 1 2-1 1-3 5-2-1-3 4-2 3-3h2l2-5 7-8 1-6 2-5h2v-5l4-10 3-10 2-10 2-6v-3h2l1-6h2l1-6h2v-6l3-9 5-9 7-14h2l1-4 4-5 2-4 8-11v-2h2l1-4 4-6h2l1-5h2v-3l4-4 2-3h2l1-4h2l2-4 5-6 4-4h2v-2l4-2 2-3h2l2-4 17-12 16-10 8-4 3-3 7 1 7-4 16-7 13-6 21-7 30-7 25-4zm-3 41-17 2-20 3-15 4-24 8-18 8-2 4-16 8-12 7-18 14-10 9-14 14-3 4v2l-3 1-2 5h-2v2h-2l-4 6v2h-2l-10 16-12 20-8 15-10 23 1 2 8-16 8-17 9-16 7-11 11-16 11-13v-2h2l-7 9-1 3-3 3-4 8-2 1-2 5-3 5v3h-2l-2 8-2 1-2 4v3h-2l-2 3-1 6-2 2h2l-3 9-3 10-8 22-8 24-8 16-6 9-7 8v2h-2v2h-2l-4 5-11 9-4 6-3 1-4 6-2 5-3 1-1 6h-2l-2 6-3 1-5 16-1 5v13l4 12 7 10 5 6 14 11h3l-1 3 4 3h2v2h3v2l-16-2v2h-2v3l-7-1v-3l-14-9-9-8-4-5-4-2 2 7 3 4v4l2 1 5 5 6 4 4 4 9 7 17 8 5 3 1 3 14 5 12 4h2l1 3 10 4 4 1-1 5 3 2 18 4 3 2 15 3h4v2l-3 1 1 1 16 1-1 3 10 3 45 2 1 1h15l-26 2v1l12 1 30-1 4-1 28-2 32-5 25-5 1 3 2-3h-2v-2l13-2 32-9 15-5 7-2 10-2 29-12 26-12 19-10 6-2 1-2 6-2 20-12 19-13 15-10 10-7 3-3 2-7-4 1-11 7-4 3-10 6v2l-5 2-13 8-20 12 9-6 22-14 9-6v-2l4-1 5-3v-2l5-2 3-3 10-8 7-6v-3l5-6 2-2 6-8 3-2v-2l3-1 1-3 5-5 2-3v-3l4-2 1-6 3-5v-2h2l5-9 3-9 2-7-1-2 2-1-1-5 2-1-1-7-2-11-3-5-2-5-8-10-11-7-7-6-5-2h-3l-1-2-12-7-8-3-7-4-8-2-1-2-2 1-1-4-3-1-16-8h-2v-2l-5-3h-2v-2h-3v-2l-8-7-2-3h-2l-1-3-4-4-2-4h-2l-1-3-3-6h-2v-3h-2v-2h-2l-2-6-1-2 8 6 3 2-2-4-6-7-11-9-3-3h-2v-2l-17-12-11-7 4 1 21 14 7 6 10 8 13 12 10 10 1 2h2l2 4 6 7 3 1-2-5-11-13-2-3h-2l-2-4-28-28-1-4-5-3-5-5-9-5-13-8-9-5h-2v-2l-15-7-15-6-11-4-2-1v2l-8-4-1-2-5-1-16-4-5-2-4-1-15-2-2-1h-18l31-1 21 2 15 2 10 1 3-3-25-5-20-2z" fill="#290C80"/>
<path transform="translate(333,144)" d="m0 0 6 1h5l4 1 7-1 6 1h22 4 37l3-1 1 1h6l5 1h11l6-1 7 1 4 1 4-1v2l6-2v2l14-1h7l5 1h9l6 2 5-1 7-1 3 1h7l3-1 6 1 7 1 5-2v2l5-1h11v3l1-2 12-1 5 1 1-2 5 1 6 1 4-1 4 2 5-1 2-1 4 1 5-1 7 1 4-1 9-1 1 1h17l12 2 2 3h2v-3h2l1-2 8 2 7-1 5 1 3-1v2l7 1h13l5 1 11 1 7 2 1 2 3-1v2h5l12 3h6l7 3 1 2 4-1 9 4 6 2 7 2v2h6l9 5 4 2 3 4 5 2 5 5 7 4 4 6 7 10 1 3h2v3h2l1 4 2 1 6 20 2 2v9l2 4v7l1 11 1 2v19l1 5-1 7v22 3l-1 9v9l-1 9h-2l1 5-1 3 1 1-1 5-2 2-4 5 1 3-10-1-2-1-2-4-8-5-4-2-5-2-4-3v-2l-4-2-5-4-10-5-6-5-3-2-3-3-4-1-8-6-1-3-5-1v-2l-2-1-3-2v-2l-3-1-3-7-5-2-3-7-5-7-4-3 1-3-2-1-8-8-1-8-4-2v-3h-2l-1-2-4-2v-3l-3-1-3-5-1-3h-2l-2-5v-2l-4-1-3-5v-2h-2l-1-2h-2l-2-2h-2l-5-6-7-3-4-3-4-4-2-1 1-2h-3v-2l-5-2-7-6h-2l-4-4-6-1v-2h-3v-2l-6-2-6-4h-3l-2-3-9-1-3-3-5-2-3-4-2 1-11-7-2 1-7-2-2 1v-4l-5-1-1 3-6-3h-2l-5 1v-2l-7 1-5 1-1-2-6-2-4-2h-3l-7-2-6 1-2-2-2-1-2 2-2-2h-4l-2-1-6 2h-9l-4 1h-3l-2 1v-2l-7 1v2l-3-1-4 1-6-2 1 3-9 3-5-1-4 2-11 1-7 2-10 2-10 3-12 3h-4v2l-5-1-1 2-6 4-7 1-6 4-5 2h-3l-1 3-3-1v2l-13 5-6 4h-3v2l-14 6-4 3h-3v2h-2l-2 4-2-1v2l-7 2-2 4-7 5h-2l-2 4-5 4h-2l-2 4h-2v2l-7 2-2 4-4 5-5 4h-2l-1 6-6 8h-2l1 3-6 5-5 10-3 1-1 5h-2l-2 6-8 13-3 8h-2l-1 5h-2l-1 3-3 4-1 6h-2l-3 10h-2l-4 12h-2l-1 4-2 6-4 2 1 2-2 4-6 2h-3l-3 6h-2v2h-2l1 8-2 4-2 5h-2v5h-3l-1 5-1 2h-2l-2 9-4 1h-3l-6-1-4 2 2 7 2 2h-2l-1 5-2 1v3 2l-3 1-2 9-1 6-3 3h-2v4l-3 1-4 7-3-4 1-7 1-4-2-1-1-4v-2l-3-3v-6-3h2v-3h-2l-1-4 1-4-2-13v-20l-1-9v-17l-1-6v-75-3-9l2-23 1-11 2-8 3-13 6-16 2-1v-5h2v-3h2l3-10 2 1 1-2h2l2-6h2v-2l5-2v-2l4-1 1-5 7-5 3-3 5-3 2-2 4-1v-2l5-4 4-1 4-2 5-3 6-1v-2h4l1-2h2l2-2 9-1 2-2 10-1 8-2 7-1 2-1 3 1 4-1h8l6-1h13l5-1 5 1 4-1h10z" fill="#08062E"/>
<path transform="translate(264,135)" d="m0 0h487l23 3 10 3 7 1 12 5 19 10 13 9 10 9 8 7 11 13 9 15 8 17 5 15 4 18 2 26v434l-2 36h-1v-28l-1-6 1-211h-2v10l-1 6 1 9v2l-4-2v-4h-2v-3h-2l-1 2h-3v2l-2 1-1 3h-2l-1 4-2 3h-3l-2 5-4 5-4 4-2 5-5 3-3 5-4 4-3 6-4 1-2 4h-2v2h-2l-2 5-3 5-2 1-4 8-4 1-2 6-9 9-5 7h-2l-1 6h-2v4h-2v2h-2v5l-6 9-2 5h-2v3l-4 4-2 5h-2l-2 5-2 3h-2l-1 4-3 4h-2l-3 6h-2v2l-5 5h-2v2l-2-1 1-4 2-1 2-5 1-2h2v-5l3-1 2-6 5-5 9-16 3-4 1-8 3-4h-2l-2 3-3 1v2h-2v4h-2l-1 2-2 1-4 4-3 5-1 4-2 1-2 4h-2l-1 2-4 5-9 9-2 5h-2v2h-2l-2 5-5 4-2-1 1 3h-3l-2 4-3 1v2h-2v2h-2v2h-2v3h-3v3l-7 6-2 2h-4l-2 4-5 5-4 2v2l-4 1-5 3h-2l-1 3h-4v2l-6 3-5 3-3 3-11 4-4 4-6 3-9 3-5 1-1 2-24 8-9 2-7 3h-6l-1 2-7 1-13 3-20 2-3-1-1 2-28 1-9-1h-12l-21-3-22-4-10-3-15-5-12-5-9-4-14-6-4-3-20-12v-2l-6-2-1-2-11-6-6-4-4-2-5-5-10-6-3-1v-2l-6-2-4-1-16-6-10-4-11-6-4-2-5-3-9-5-20-8-10-5-5-2v-2l-6-1-7-7-1-4-5-4-4-4-1-3-4-3-1-3-3-1v-2l-3-3-6-7-5-8-3-4v-4h-2l-5-11-2-5 1-4-1-5v-8-4l2-5h-2l2-11 1-7 3-7 1-7 3-7 3-9h2l1-6 3-7 3-6h2l1-4 3-5 1-2 1-3 3-3 2-1 1-4 5-6 3-6 1-3 2-2 4-7 3-2 3-7 3-10 9-18 1-5 2-7 4-10 2-6 2-7h2l3-10 5-12 7-20 3-3 2-5 4-8h2l1-6 4-5 7-12h2l2-6 2-3h2l1-4 2-4h2l2-4 8-10 5-6h2v-2h2l2-4 5-5 3-1 1-4 4-1 2-4 9-8 7-5 2-2 8-6 6-3 3 1-2 4-6 4h-2l-2 4-5 4-3 1v2l-4 1v3l4-2h3v-3l3-1 2-2 3-1 1-2h3v-2l11-3 9-6 5-3h2v-2l7-2 1-2 5-1v-2h3v-2l16-6 13-5 16-8 7-1 4-1 3-3 3 1 1-2 14-1 6-2 5-2 3 1v-2h8l9-1 12-1h40v2h14l7 1 11 2 6 2 11 1 2 2 9 2 11 5 2 2 6 2 4 1 2 2 2 1v2l7 1v2l7 2v2l5 1 3 1 1 2 6 2h2l3 3 10 4 1 3h4l2 4 1 3h3l5 5 7 4v2h2l4 4 2 1v2l6 2 4 5v2h3l3 6 1 4 5 2 4 5 1 3 5 3 4 8 9 12v3h3v2h2v3h2l4 9 5 5 1 3 3 1 2 4 2 2 4 3v-2h2l-1 4 4 5v2h2l3 3 7 3 4 3 1 3h3l4 3 5 1 2 4 4-1 3 2 1 3 4 2 6 5 6 3 4 3 2 1v2l5 2 5 5 5 3 1 4 1-2 2 4 4 4v2l4-1 4 3v2h2l1 2 2-2h5v13 3 8l1 1v-141l-2-32-2-14-7-27-6-15-8-14-9-12-12-13-12-10-14-9-17-8-10-4-6-1-4-1h-2l-1-2-2 1v-2h-11l-19-2-5-1-4 1-5-1-3 1-6-1h-22l-4-1-31 1h-32l-32-1-10 1-8-1-2 1h-13l-5-1-22 1h-27l-3-1h-221l-3 1-1-1-11 1-5-1-1 2-15 1-17 4-13 5-19 9-14 10-11 9-12 13-10 15-7 12-8 20-4 15-5 39-1 17v423h-1l-1 14h-1l-1-17v-447l4-30 4-15 8-22 8-14 10-14 12-13 11-10 13-9 12-7 19-8 21-5zm249 73-18 2-27 5-24 6-18 6-21 9-8 4-7 4-7-1-6 5-5 2-16 10-14 10-5 4v2l-3 1-3 3-2 1v2h-2l-6 7-5 5v2h-2l-1 4-3 1-3 5-2 1v3h-2l-1 5-3 1-4 6v3h-2l-2 5-4 6-4 4-1 4-4 4v3h-2l-13 26-2 7v5l-2 1-1 5-2 1-1 5h-2l-1 7-2 4v6l-3 7-4 14-1 1v5l-2 1-3 9-9 12v2l-4 2-3 3-2 1 1 2-5 2-1 3-2 1 5-1 7-7h6v2l-3 1-3 3-1 3-2 1-2 4-3 3-4 5-1 3-2 1-2 4-2 1-5 9-1 3-2 1-5 3-1 3-2 2-4 5v2l-4 2-3 6-3 3-2 6-2 1-1 5-5 11-1 11-1 7v8l4 16 3 7 6 10h2v2h2v2l6 6h2l2 4 4 3 4 2v2l5 2 4 2v2l10 7h2l2 4v3l10 6 12 4 5 3 6 2 4 2 2-1 1 2 2-1 1 2 24 8 4 2 2 3 1 2-2 1v2h4v2l20 4 2 2 7 2 9 1h8l1 2 2 1 1 4 13 3 7 1 7 2 4-2v3h7l6 3h5v2h2l-1 5 14 7 7 4 10 1v2l11 4 22 6 24 3 6 2 12 2 2-1h19l9-1 5-1 14-2 10-3 24-8 6-1v-2l5-1 16-7 11-6 10-5 16-10v-2l6-2 4-2 3-3 10-7v-4h2v-2h2v-2l5-1 2-4 2-2 2-1 4-7 3-3v-2h2l4-5v-2h2l5-6 1-4 3-1v-2h2l2-6h2l5-7v-2l2-1v-3l4-1v-2l3-1 2-5 4-1v-3l5-1 5-3 5-5 1-3 5-2 5-5 5-3 8-2 5-8 11-9 6-4 5-6 8-7 5-4 5-6 9-9 3-6 2-1v-2h2l8-10v-2h2l1-4h2v-4h2v-4l3-1v-2l5-3 3-5 2-9v-3l2-1v-4l1-5-2-6v-5l-1-2h-2v-5l-2-8h-2l1-3-1-2h-2l1-3h-2l-1-6h-2l-2-4-2-3-7-9-5-4-3-1-2-4-4-4-2-3h-3v-2h-3l-1-2-6-5h2l1-3-9-4-20-7-4-1-1-2-1 1-5-6-6-2-2-4-5-1-1-2-4-2-9-7-2-3h-2v-2h-3v-2h-2l-2-4-4-4-7-11-3-1-2-6-3-7-3-2-3-3-2-1v-2h-2v-2h-2l-2-6h-2l-2-7-5-5-2-3h-3l-2-4-5-5-3-1v-2l-8-5h-2l1-5 7 6h3v2l6 3 5 5 9 3 1 3 5 4h2l-2-5-7-5-5-5-11-8-2-2-4-3h-3l-1-3-14-9-4-2h-3v-2l-7-3-2-2h-3v-2l-14-6h-2v-2l-9-3-2-2-6-3-7-3-7-1v-2l-5-2 5-1 8-1-1-2-13-3-7-2-24-4-10-1z" fill="#130953"/>
<path transform="translate(856,667)" d="m0 0 2 4 3 1h3v-5h3l2 4-1 4v4l4 3-1 3h3l1 4-1 2 1 4v5l1 2v10l1 5v3l-1 1 1 3 1 12-1 1v12l-1 2 1 5-1 4v3h-2l1 4-2 6-1 6-4 13-2 6-2 7-1 6-4 8-2 5-6 11-2 3h-2v3l-6 5-6 8h-2v3l-6 1v2l-5 3-10 5-8 6-6 3-5 1-2 2-6 3h-12l-2 2-3-1-2 2-5 1-2-1v2l-3-1-1 1-6 2h-11-3-7l-5 1-14 1h-17l-4 1h-55l-2-1-11 2-15-1-3 1-3-1-10 1-17-1h-70v-2l-12 2h-34l-16-1h-54l-3 1h-10l-3-1h-11l-5-2-1 2h-17-4l-6-2-11-2-1-1-10 2-7 1-2-1v2l-7-1-4-1h-5l-5-1-2 2-19-2-9-3-12-3-6-4h-5l-5-5-6-3-5-2-2-2-1-2-4-1-2-1v-2l-5-2-2-5h-2l-2-2h-2l-2-5h-3v-2l-4-2-4-5v-3l-4-4-1-5-3-2-1-4-2-4h-2l-3-9-1-8-2-2-2-8-2-5-2-12-1-8-1-20-2-4 2-3v-12l2-4 2-10 9-1 1 2 1-3 1 2 5 2 6 3 4 4-2 2-3 1 1 3h6l1-2 4 2h8l7 3 3 2v2l3 1 6 1 1 3 4 3 3 3 3 12 5 1 5 5v10l2 5 4 4 12 3 4-3 11-1 5-4 6 1 8 6 2 5 7 1v2l5 1 3 2 5 1 1 5h2l5 6 4 2 3-1v2h2l1-2 4 6 3 2 3 1 7 1 2 5 7 1 1-2h4l5 2v3l2 1 1 2-2 1h8l4 3h4v2l6 1v2l-2 1h2l2-2 5 1 8 3 1 1 7-1 10 4 2-1v2h7l4-1 1-2 7 2h3 8l3 2h8l7 2 2-2 1 2 6 2h3l3-4 3 1 1 4 10-4 4 1 1-2 6-1 2 1h9l6 2 7-2 6 2 4-1 2 1 1-2v2l3-1h14l10 4 1 7h3l-1-5 1-2-3-1 5-3h3l2 2 3-3 7-1v-2h3l2-2 5 1 4-3 2 2h2l1-2h4l16-3h3l4 1 1 2 5 3 3 3 3 1h8l2 1v-3l5-5 1-10 2-5h6l-1-4 4-2v2h6l-1-3 3-1 6-1 4-1 2 2 4 1h3l1-2-2-1-3-1 3-6 6-2v2h2l1-3 1 3 4-3 5 1-2 7-5 3-1 4-1 1v9l3 4 1 3 2 1v2l4 1v2l6 1h9l2-4 2-3h2l1-8-2-7-2-3v-4h-2v-2l-2-1 1-2-6-3-2-3 6-6 2-5 2 1v-7l6-3 5 1 1-7 7-3 9 1 2 1 1-2 6-1 1-4v3l3-1 2 5 7-2 5 2h7l9-3v-2h2v-5l2-3-1-10-2-6-3-4 1-3h2l1-5 2 1 1-2h4v-2l-2-1 4-4h2l1-6 3-2 4 1 5-2 5-1 2-9 1-6 6-6-3-3v-5l2-5 5 3-2-3-1-5h3l2-2v-5z" fill="#070522"/>
<path transform="translate(285,139)" d="m0 0 2 1 5-1h220l5 1h31l18-1 5 1h10l4-1 10 1 11-1 27 1h35l28-1 8 1h21l3 1 4-1 5 1 3-1 16 2 20 2 1 3 5-1 5 2 9 3 12 5 16 9 16 12 11 11 8 10 9 14 7 14 5 15 6 24 2 23 1 24v138l-3-3v-23h-4l-2 3-1-4h-2l-4-4h-4l-2-5-3-1-2-2-2-1 1-3-5-2-5-5-3-1v-2h-2v-2l-7-2-2-2-1-2h-4l-6-7-4-2-2-3-3-1-1 2-4-4-1-2-3 1v-2l-4-2h-3l-2-1v-3l-3-1-4-1v-2l-5-2v-2h-2l-4-5-1-3 2-3h-2v2l-5-2-4-7-5-5-1-3-3-1-3-9h-2v-3h-2v-2h-3l-3-6-9-12-1-5-5-2-4-6-4-4-2-1-4-7v-3h-3l-4-6-6-3v-2l-5-2-1-3h-2l-2-2-9-6-1-3h-3l-2-2-2-4-3-1-2-3-9-3-3-2v-2l-3 1-6-3v-2l-5-1-3-1-2-2-5-2v-2l-7-1-1-2-2 1-3-3v-2l-3 1-5-2h-2v-3l-5-1-9-4-7-2-5-1-9-1-4-2-13-2-8-1h-7l-5-2h-45l-7 1-14 1-2-1v2l-3 1-3-1-1 2-6 1-2 1-11 1-5 1h-3l-1 3-3-1-1 2-8 1-8 5-6 1-1 2-9 3-17 7h-3v2h-3v2l-10 5h-3v2l-7 4-10 6-2 2h-4l-2 1-2-1v2h-3l-1 3-5 3h-3v3h-3l-1 2-6 2 1-2h2v-3l4-1v-2l2-1 1-2 6-4 4-4 5-2 1-4-4 1-6 4-12 9-9 7-5 6-4 2-1 3h-2l-1 2-7 8h-2v2l-5 5-7 8-5 7h-2l-1 4-2 4h-2l-2 5-2 4h-2l-2 5-9 15-1 3h-2l-1 5-4 7-2 4h-2l-2 9-5 13-4 12h-2l-1 6-1 2h-2l-1 7-6 16-2 7-1 5-2 1-1 5-3 8h-2l-3 11-4 10-4 2-1 4-4 6-2 7-4 2-2 4-4 6-4 7-3 4-3 6h-2l-1 4-4 9-2 6h-2l-1 5-3 8-2 5-1 9-3 6v7l-1 6 1 1-2 6 1 3-1 4v9l1 5-1 3 2 1 3 8 1 4h2l3 6 7 12 9 9 1 4 2 1 4 3v3l4 2v2l3 1v2l3 1 2 5 5 5 6 2v2l6 1 15 8 5 1 9 4 4 1v2l5 2 5 3 3 1 9 6 9 3 12 5 10 4 5 1 14 9 7 5v2l6 2 9 6 7 4v2l6 2 6 5 7 4 3 1v2l9 3 4 3 11 5 1 2 9 2 7 3h2v2l6 1 13 4 6 2 16 3 21 3 6 1h13l13 1 23-1 4-1 13-1 15-3 7-1 6-2 8-2 6-2 9-2h4l1-2 2 1 1-2 15-5 7-3 6-2 8-4 4-4 5-2h4l1-2h3l1-3 8-5h3v-2l4-1 4-4 6-3 2 1v-2l6-5h2l2-4 3-3 4-2 3-1 2-4h2v-3h3v-3h2v-2h2v-2h2v-2l7-6v-2h3l2-3h2l2-5h2l2-5 3-5 4-3 2-3 3-4h2l1-2 3-2 2-4 2-2 2-5 3-7 1 2 2-3 2 1v-5l1 3 2-4h2v-2h2l2-4 4-2v4l-3 2-1 9-4 5-9 16-4 5h-2l-1 5-2 2-1 3h-2l-2 7-3 5 6-6h2v-2h2l3-6h2l4-8h2l2-4 7-12 3-1 1-5 3-5 2-1 2-5 2-6h2v-2h2l1-6h2v-4l4-4 6-8 5-2 2-6 1-2 3-1 5-9 3-2 4-8h2v-2l4-4 4-2 4-8 7-8 4-1 2-7 5-5 2-3 3-4h3l2-4 1-3h2l1-4h2v-2h3l1-3 2 1v3h2l2 5 2 1-2-12 1-6v-7l1-2h2v212l1 5v34l-4 25-6 20-8 18-6 10-4 6-7 9-16 16-16 11-21 11-16 6-15 4-12 2-12 1-115 1h-301l-56-1-18-2-16-3-18-6-17-8-13-8-11-8v-2l-4-2-6-5-7-8-9-12-8-13-4-7-6-16-4-14-4-23-1-16 1-17h1v-420l2-26 4-30 5-18 8-19 11-18 8-10 12-13 14-11 9-6 23-11 21-6 15-2h5l4-1h8zm48 5-8 2h-12-3-7l-2 1h-16l-6 1h-7l-2 1-3-1-1 1-13 2-2 1-11 1-1 2-10 1-1 2h-3v2h-4v2l-8 2-7 3-1 2h-4l-4 4v2l-5 1-4 4-4 2-5 5-3 2-1 5-4 1v2l-5 2v2l-2 1-2 5h-2l-1 2-2-1-3 10h-2v3h-2v6h-2l-4 10-3 8-1 8-2 7-2 12-1 19-1 13-1 5 1 4v76l1 6v19l1 7v16l1 10 1 3-1 5 1 3h2v3l-2 1v4l1 6 2 1v4l1 3h2l-1 5-1 6 3 4 4-7 3-1v-4h2l3-4 2-9 1-5 3-2 1-3-1-1 2-1 1-5 2-1-3-3-1-6 6-1 4 1h3l4-1 2-9 2-1 2-3v-3h3v-5h2l3-6 1-4-1-7h2v-2h2l3-6h5l4-3 2-4-1-1 4-2 3-7v-3l2-1 4-9v-2h2l3-10h2l2-7 3-3v-3h2l1-5h2l4-10 7-11 2-6 2-1 1-4 4-2 4-9 6-5-1-3 4-2 5-8v-4l4-2 9-9v-2l7-2v-2l4-2v-2l5-2 4-4v-2l5-2 6-5v-2l7-2v-2l3 1 1-4h2v-2l5-1 6-4 10-4v-2l5-1 8-5 9-3v-2l3 1 1-3 4-1 7-3 4-2 7-1 6-4v-2l5 1v-2l6-1 13-3 7-2 5-1 6-1 7-2h5l7-2 5-1 4 1 7-3-1-3 8 2h3 2v-2l7-1 1 2 3-2 4 1 5-1h5l6-2 4 1h3l2 2 1-2 3 1 2 2 5-1 9 3h2l9 3 2 2 6-1 5-1 1 2 5-2 3 2 4 2 1-3 5 1 1 4 2-1 7 2h3l9 6 2-1 3 4 6 2 2 3 9 1 4 4h2l5 2 4 3h2v2h3v2l7 2 4 3 4 2 5 5 4 1v2h3l-1 3 4 1 2 3 4 3 8 4 5 5h2l1 2h2l1 2h2l2 5 2 3h3l1 5 1 2h2l2 4 3 5h2l1 4 3 1 1 2h2v3l4 2 1 8 8 8 2 1-1 4 4 2 7 10 2 4 5 3 3 7h2v2l3 3h2l1 2 4 1 1 3 8 6 4 2 5 4 4 2 6 5 10 5 4 4h2l1 3 6 4 6 1 3 3 6 4 2 3 6 2h5v-2-1l1-3 4-4 1-5-1-1 1-6-1-2 2-1 1-16v-7l1-3v-3-27l1-3-1-5v-19l-1-4-1-16-2-5v-7l-2-2-6-20-2-1-1-4h-2v-3h-2l-2-4-10-15-7-4-5-5-6-3-5-5-5-2-5-3h-6v-2l-11-3-9-4-3-1-3 1-1-2-7-3h-7l-7-2-9-1-1-2-2 1-1-2-8-2-10-1-2-1h-3-15l-5-1-1-2-5 1-5-1-5 1-3-1-5-1v2h-2v3h-3l-2-3-14-2h-14l-5-1-8 1-2 1-9-1-2 1-6-1-4 1h-2l-6-1h-4-7l-2-1v2l-5-1-12 1-1 2v-3h-14l-2 1-1-2-6 2-7-1-5-1-5 1h-7-3-8-4l-8-1h-8l-4-1h-11l-7 1-1-2-5 2-1-2h-4-8l-3-1-8 1h-12l-2-1h-5l-2-1-7 1h-32-4-26l-5-1-5 1-9-1zm542 425-5 3v2l-4 2-5 2-3 2v2l-5 2v2h-3l-2 2-1 3-3 1v2h-2l-1 4h-2l-2 5-4 4-3 6-2 2-4 11-1 4-7 1-6 7-5 5-4 7-6 7-6 12-3 3v2l-3 1-1 4h-3l-1 4-2 1-4 6v2l-5 1-6 7v2l-3 1-1 4h-2l-6 8-2 1v2h-2v2h-2v3h-2l-5 5v2h-2v2h-2v2h-2v2l-6 2-5 6h-2v2l-4 2-6 4-5 3-5 4v2l-10 5v2l-5 2-7 4-3 1v2l-6 2v2l-6 1v2h-4v2h-5l-10 4-1 2h-6v2l-4 1-2 1v2h-7l-4 2-1-5-5-1-11 4-5 1-7 1-5 3-9 1h-5v2h-7l-5 1h-7l-12 2h-30l-11 1-10 1-12-2-5 1-4 1v-2l-16-3h-6l-5-2-5-1-18-4-13-4-5-1-10-4-8-4-5-1-5-2-4-4-5-1-1-2-11-6-7-4h-4v-2l-5-2-1-2-5-2-3-1v-2h-2v-2h-2l-1-2-5-2-1-2-3 1v-2l-5-1v-2l-3-3h-4l-1-2-4-3-7-2-1-3-11-3h-3v-2l-6-1-1-3-2 1v2h-2l2-5-9-4-5-2h-3v-2l-4-1-1-2-7-4h-3l-1-2-5-3h-3l-1-2-5-2-12-5h-2v-2l-7-3-6-5-2-1-1-3h-2l-1-2-5-1-1-2-4-4h-3v-2h-2l-2-4-6-8-5-3h-2v-2l-5-5-2-3-3-1-3 1-1 5-3 6v13l-1 4-1 7 1 6-1 12v32h2l-2 6 2 25 3 20 4 17 5 15 8 16 6 10 7 9h2l2 4 7 8h2l2 4 11 9 9 6 21 10 18 6 13 3 22 3h466l16-2 19-4 23-8 12-6 11-7 8-6v-2l5-2 6-5 7-8 10-13 8-14 9-21 3-11 4-23v-8l2-9v-25-3l1-5v-11l-1-5 1-4-1-7 1-23-1-19v-21l-1-6v-11l-1-7-1-4 1-2-1-8-3-15-1-2z" fill="#0C0940"/>
<path transform="translate(505,339)" d="m0 0h27l2 2 21 3 10 4 1 2 7 1 4 1v2l6 2 5 4v2l-2 1 4 2v2l4 1v2h2v2l5 1v2h2l12 12v2h2l7 8 7 11v2h2l5 8 8 17 6 15 3 13 2 13v21l-1 2v9l-1 3h-2l1 7-2 8-3 2-4 9h-2l-2 5-5 5-7 6-5 5-5 4-9 3-4 3h-10l-8-1-2 1-5-5v-3l-5-2-2 7-2-1-5-21-8-17-8-10-8-8-14-11-1-1v-5l8-7 11-9 7-7 7-10 6-12 6-26v-8l-3-3h-116l-3 3v8l3 16 5 15 7 12 9 10 21 18v5l-17 14-9 9-9 14-6 16-2 5-2-3-3 8h-2l-3 11-2 4h-2v2h-3v2l-9 3-7-1-8-1-11-4-5-4v-2h-2l-10-18-3-7-5-15-3-12-2-22v-28l2-5 2-7 6-22 9-16 10-14 6-8h2v-2h2l2-4 5-5h2v-2l14-10 8-5 16-8 11-5 27-6h-12l-5 2h-6l1-3 7-1 10-4 12-2z" fill="#08062E"/>
<path transform="translate(486,290)" d="m0 0h36l15 2 13 2 6 2 15 3 21 8 8 4-4 1 9 5 1 3 5 2 5 3 5 2 11 8 15 14 8 7v2h2l9 11 9 10 8 10 9 10 11 9 8 5 19 8 24 9 3 3-8-1-10-2 9 6 2 1v2h3l3 4v2h2v2l3 1v2h2l4 4 8 14 2 7v11l-2 10-3 8-4 8h-2l1-5 4-11v-6l-5 10h-2l-2 5-4 6-5 5-2 3h-2l-2 4-6 7-7 6-4 4-4 1v2h-2l-2 4-6 4-5 5-5 4-11 7h-2v2l-17 11-12 6h-6-3l4-4-9 6h-2l-1 3-24 13-6 2 3-3 18-10 12-8 5-4 4-8 5-5 9-10 4-9h2l1-4 5-10 4-13 1-5v-4h2l-1-9v-10l-1-1-1-8-3 23-4 15h-1v-16l1-22-2-22-4-18-7-21-10-20-7-11-9-12-11-12-10-10-13-10-13-8-16-8-15-6-14-4-14-3-9-1h-33l-20 3-20 6-21 9-18 11-14 11-13 13-9 10-12 18-10 19-8 22-3 10-3 22v36l4 28 1 12-2-1-8-24-1-4-2 5-2 12-2 6h-2l-1 6 2 13 4 11-1 2-5-8-4-12-2 1-1 3-2 1-2 13 1 3-1 4 3 2v3l3 5 4 2 5 7 5 2 2 4 6 2 7 6 19 7 19 5v1l-10-1-9-2 9 4 7 3v2l6 2v2l-31-2-8-2-17-2-22-6-15-6-22-11-10-7v-2l-4-2-7-9-3-11v-9l3-13 3-7 8-14h2l2-4 6-10h2l2-4 6-8 4-7h2l1-4 2-3h2l3-10 5-17 5-19 6-16 1 3h2l1-6 7-15 9-19 8-13 4-7 5-5 4-6 2-4 5-5 5-6h2l1-3 3-3h2l2-4 11-9 14-10 13-8 16-8 15-6 9-2 2 1 22-5z" fill="#52A6FB"/>
<path transform="translate(478,281)" d="m0 0 5 1v2l11-2h24l9 2 8 1 7 2 1 1 11 2 21 6 17 6 16 8 11 6 1 2-1 1 15 11 8 5 5 5v2l4 2 8 7 7 8v2l3 1v2l3 1 12 16 11 13h1l-11-14-10-13v-3l3 3 3 1v2l3 1 1 4 5 2 4 4v2l4 2 9 9 17 12 11 5 15 7 5 2 3 3 16 6-3 1-4-1 7 3v2h2v3l-9-3-10-3v-2h-9l-25-10-14-6-11-8-12-11-11-13-8-10-10-11v-2h-2l-5-5-1-3-4-2-7-7-11-9-7-5-7-3-7-4-4-4-7-4 3-1-21-9-15-4-11-2-6-2-14-2-9-1h-36l-15 4-10 2-4-1-19 7-16 8-12 7-17 12-12 10-1 2h-2l-1 3-5 4-8 10h-2l-1 4-8 11-2 1-6 11-9 16-7 16-5 10-2 6-3-1-8 24-6 24-5 12-4 4-1 3h-2l-2 6-6 7-4 6-4 4-3 6-3 4h-2l-2 5-5 9-5 14-1 13 2 10 4 7 5 6 2 1v2l5 2 10 7 15 7 12 5 16 5 16 4 12 1 10 2 24 2 5 1-1-2-8-2v-3l-5-2-18-6 3-1 20 5-30-10-6-3v-2l-7-4-2-1v-2l-3-1-5-3-5-7-4-2-4-7 1-1-3-2 1-6-1-2 2-12 3-1 1-4h3l5 14 3 4-4-11-2-14 2-5h2v-5l2-6 3-16 2 4 7 23 2 5-1-14-3-16-1-9v-36l3-22 9-27 9-19 10-16 11-14 7-8 8-7 9-8 15-10 14-8 20-8 17-5 20-3h33l19 3 15 4 6 2v2l4 2-5-1-16-4-12-2-4-1-20-2-32 3-12 3h-7v2l-5 1v2l-6 1-4 3-8 3-10 6h-2v2l-7 4-15 11h-2l-2 4-3 1-2 4-5 5-4 5-3 4h-2l-2 5-3 5-4 6-7 12-12 28-4 20-1 4-2 9-1 16-1 1v31l2 10 5 16 6 16 9 16 7 9 12 13 13 10 21 11 17 6 20 4 15 1h8l8 1 30-4 19-3 17-2v-2h5v-2l10-2 15-7 10-4 15-9 14-7 4-3h3l1-3 5-2v-3l5-3 5-5 9-11 6-9 8-17 8-24 2-25 2-3-1 33 4-16 2-17 2-2v10l2 1v19l-1 5-3 10-4 12-3 6-2 3h-2l-1 6-11 13-4 5h-2l-2 6-5 5-5 4-16 10-12 7 21-11 7-4 4-4 8-5 2 1-3 3h6l12-6 11-7 4-3h2v-2l10-6 11-8 4-5 5-3 1-2h2v-2l5-3h2l2-4h2l2-4h2l1-3h2l2-4 8-9 2-3h2l2-5 4-6h2l1-4 4-7h1v8l-6 15h2l2-6 3-7 2-6 1-7v-11l-3-10-6-8v-3l-4-2v-2h-2l-3-3v-2h-2l-3-4v-2h-3v-2l-5-1v-2l-5-2-2-2 4-1 18 6 16 8 7 5 3 6 2 9 1 4 1 6-1 10-4 10-9 15h-2l-2 5-6 8h-2l-2 4-3 1-2 5h-2l-1 3-8 7-5 5h-3l9-10-5 4-10 9-16 13-24 16-21 13-17 9-8 4-4-1-9 4-3 1h-8v2l-7 3h-3l-1 2-6 3h-6v2l-4 2h-5v2h-3l-1 2h-4v2l-11 4-7 3-9 1v2l-15 4-12 1v2l-31 6-21 3-18 2-17 1h-51l-42-4-32-6-4-2-12-4v-2l-4-1-2-2-1-2-4-1-18-8-11-7-6-4v-2l-3-1v-3l-2-1v-2l-4-2-6-8v-2l4 2 5 5 7 6-5-6v-4h-2l-3-8 4-1-3-7-1-12 2-9 1-2h2l3-9 8-16h2l3-9 3-4h3l1-3 4-5 4-4 4-8 3-5h2l2-6 8-20 3-10 2-3 2-4h2l2-9 1-2h2l2-7 4-8 1-10 5-12 8-15 4-6 6-11h2l2-6 4-4 4-7 8-6-1-3-2-1-2 4-3 1v2l-2-1 1-2h2l2-4 7-8h2l1-3h2v-2l10-8 4-3h2v-2l18-12 5-1 1-2 9-3 5-3 11-4 4-2 7-2 13-4z" fill="#5C55F1"/>
<path transform="translate(500,235)" d="m0 0 5 1v1l-26 4-28 8-17 6h3l12-4 7-2 12-3 13-2 18-2 9-2h24 3 18l2 1-1 2-7-1 6 2 14 3 1 2h3v2l29 9 16 6v2l5 1 6 5v2h-2v-2h-5l-9-3v2l9 5 4 2v2l5 1v2l3-1v2h2v2h3l3 3 12 9 5 5 3 2v2l4 2 5 3v2l5 2v2l4 2v2l5 2 2 6 3 2v3h2l5 5 18 22 5 6v2h2l2 5h2v2l4 2 6 5 5 3v2l6 2 16 8 14 5 21 6 7 3-2 2 10 6 5 2v3l-5-1v-2l-4-1-14-7-9-3-16-6-5-1 4 4 10 4 7 4 4 1-1 1 5 2 4 2 9 5 8 6v2h2l1 2 3 1 7 8 1 2 3 4v2h2v3h2l3 8v-13l2 1 3 5 1 15-1 12v3l-2 1v6l-5 11v3h-2l-2 5-8 14 1 2-7 8-5 6h-2v2l-4 3h-2l-2 4-3 4-2 5-7 6h-2v2l-9 7-8 7-14 10-11 8-9 6-3 3-9 6-9 5-9 6-31 17 2 2-19 10-19 9-12 6 20-8 20-9 15-7 15-8 4 1-11 7-42 21-37 15-10 4-9 3-3 3-12 5-31 10-10 2h-6v-1l24-6 17-6-16 4-6 2-23 5h-8l-1 2-3-3-20 2-17 2-17 1-20 1-31 1-9-1v-1l6-1h-21l-17-1 4-2 21-1 2-1-10-1-19-1-8-1 2-3-5-1v-1h-6l-8-2-19-3-6-2 1-2-12-2-8-3 1-2-7-3h-3l-3-1-3-3-12-3-17-6-6-3-1-2-2-1 2-4-1-5h-4v-2l-5-1-17-9-2-3 1-1-5-5-11-8-2-4h-2l-3-6-2-2-7-16v-20l1-4h2l-1-3 5-13 5-8 5-5 11-13 33-33h2l-2 4-6 7h-2v2l-9 7-14 15-7 10h-2l-2 6-4 7-3 7 2-2v-2h3v-2h2l-1-3h2l1-3h2l1-5 3-1 1-3 3-2 7-8 1-3 2-1 1-2h7l3-6h2v-2h2v-3h3l2-4h2l2-5 2-4h3v-2l3-2 1-4 6-4 2-7 3-6 3-10 1-5 2-5h-2l-2 8h-2l-2 6-10 13-1-2 10-20 6-15 5-16 10-24 10-20 8-15 6-10 1-7h2l2-3-1-2h2l-1-3 4-7 5-5 4-7 3-1 2-5 1-2-2-1 9-10 5-6 5-2v-2l8-7 9-7h2v-2l19-12 9-6 16-8 25-10 27-8zm10 14-17 2-20 3-15 4-24 8-18 8-2 4-16 8-12 7-18 14-10 9-14 14-3 4v2l-3 1-2 5h-2v2h-2l-4 6v2h-2l-10 16-12 20-8 15-10 23 1 2 8-16 8-17 9-16 7-11 11-16 11-13v-2h2l-7 9-1 3-3 3-4 8-2 1-2 5-3 5v3h-2l-2 8-2 1-2 4v3h-2l-2 3-1 6-2 2h2l-3 9-3 10-8 22-8 24-8 16-6 9-7 8v2h-2v2h-2l-4 5-11 9-4 6-3 1-4 6-2 5-3 1-1 6h-2l-2 6-3 1-5 16-1 5v13l4 12 7 10 5 6 14 11h3l-1 3 4 3h2v2h3v2l-16-2v2h-2v3l-7-1v-3l-14-9-9-8-4-5-4-2 2 7 3 4v4l2 1 5 5 6 4 4 4 9 7 17 8 5 3 1 3 14 5 12 4h2l1 3 10 4 4 1-1 5 3 2 18 4 3 2 15 3h4v2l-3 1 1 1 16 1-1 3 10 3 45 2 1 1h15l-26 2v1l12 1 30-1 4-1 28-2 32-5 25-5 1 3 2-3h-2v-2l13-2 32-9 15-5 7-2 10-2 29-12 26-12 19-10 6-2 1-2 6-2 20-12 19-13 15-10 10-7 3-3 2-7-4 1-11 7-4 3-10 6v2l-5 2-13 8-20 12 9-6 22-14 9-6v-2l4-1 5-3v-2l5-2 3-3 10-8 7-6v-3l5-6 2-2 6-8 3-2v-2l3-1 1-3 5-5 2-3v-3l4-2 1-6 3-5v-2h2l5-9 3-9 2-7-1-2 2-1-1-5 2-1-1-7-2-11-3-5-2-5-8-10-11-7-7-6-5-2h-3l-1-2-12-7-8-3-7-4-8-2-1-2-2 1-1-4-3-1-16-8h-2v-2l-5-3h-2v-2h-3v-2l-8-7-2-3h-2l-1-3-4-4-2-4h-2l-1-3-3-6h-2v-3h-2v-2h-2l-2-6-1-2 8 6 3 2-2-4-6-7-11-9-3-3h-2v-2l-17-12-11-7 4 1 21 14 7 6 10 8 13 12 10 10 1 2h2l2 4 6 7 3 1-2-5-11-13-2-3h-2l-2-4-28-28-1-4-5-3-5-5-9-5-13-8-9-5h-2v-2l-15-7-15-6-11-4-2-1v2l-8-4-1-2-5-1-16-4-5-2-4-1-15-2-2-1h-18l31-1 21 2 15 2 10 1 3-3-25-5-20-2z" fill="#5511B2"/>
<path transform="translate(515,320)" d="m0 0 22 2 10 2 6 2 14 3h1l3-1 20 9 15 9 13 10 10 9 12 12 10 13 7 11 12 23 7 21 4 18 1 8v17l-2 25-3 9-3 10-5 12-7 13-8 11-7 8h-2l-2 4-2 2h-3v3l-5 3-1 2-7 4-19 10-12 7-15 6-8 4-10 1v2h-5v2l-17 3-49 7-16-1-15-1-20-4-19-7-19-10-10-8-10-9-9-10-8-13-8-16-7-21-3-18v-27l1-5 1-12 2-12 1-1 4-20 3-7 7-17 3-6 2-1 2-6 7-10 2-4 3-5 4-4 6-7h2l2-4 9-9 19-14h3v-2l11-6 16-8 3 1v-2l5-1v-2l16-3 3-1zm-20 9-5 1 1 3 5-2v2h-8l-22 6-8 4-5 2-6 4-7-1-3 3h3l-1 3-4 1-6 4v2l-5 2v-3h-2v2l-12 6-1 3-4 2-2 4-3 1-3 7-5 5h3l2-2-4 8-3 1-6 10v2l-2 1-2 5-6 12v2l-5 2-4 4v7l-2 3v6l3-3 1-4 1-1-1 7-2 6-3 13 2 5h2v2h-3l-1 5-1 6-1 7 1 9v7l4 19 3 12 4 9 3 5 2 1 2 7 5 7 5 5h2v3l3 2h3v2l4-1-2-3 3 3h2l2 4 9 7 9 1 18 6 11 1 9 3 16 2 2 1h18l10 1 9-1h6v-2l3 1 3-1 12-2 9-2 7-3 2-2 6-2 2-2 2-1v-2l7 1 1-2 3 1 9-1 7-2 4-1 2-2 4-1 1-2 2 1v-2h2v-2l6-2 9-4v-2l2-1v-2l4-2 5-3v-2h2l3-5v-3h2l6-12 3-10h4l3-13 2-10 2-6 1-4 1-8v-15l-1-8-2-13-4-10-2-8h-2l1-3-4-8-5-11-2-5-4-4v-2h-2l1-1h2l1 2v-5h-2l-1-4-5-5-5-3-1 1-9-9-3-4h-2l-1-2-5-2-2-4-1-5h-4-3l1-3-1-2h-6l-9-5 1-3-5-3-2-3-1 2-7-4-9-3-10-1-1-3h-13l-2 2-7-1v-2l-7 1-2-2h-6l4 3h-17v-2z" fill="#140954"/>
<path transform="translate(804,478)" d="m0 0 2 3-3 16-8 17 4-4 8-12 2 1-2 5-12 17-2 3h-2l-2 4-7 8-15 15h-2v2l-7 6h-2l-1 6-4 5-5 4-5 5-11 8-10 7-2 1-2 4-9 6-7 5h-2v2l-5 3-2 5-10 6-6 4-16 8-17 8-20 8-12 6-9 2-17 7-8 3-21 7-19 5-19 3-12 3h-4v-2l-14 1-35 4h-18v-1l7-1h-7l-5-1h-15l-37-2-6-2-5-1v-2l12-1-7-3-3-3-18-2-4-2-2 1v-3l-13-1-21-4-6-3-27-7-21-8-7-3 3-1 19 7 26 7 28 5 30 3-12-2-1-2 26 1h15l1-1 33-1-33-1-35-4-25-5-21-5 4-1 29 6 21 3 33 3h51l26-2 24-3 28-5 9-1v-2l20-4 7-1v-2l15-4 8-4h4v-2l5-2h3v-2l9-2v-2l11-2 1-2 8-4h3v-2h8l1-2 12-4 3 1 8-4 19-10 24-15 20-14 16-13 14-13 2 1-7 8h-2v3l10-6h4v-2l6-3 5-3h2l2-4 4 2-2 3 10-11 10-14 7-14 3-10z" fill="#E151FC"/>
<path transform="translate(135,226)" d="m0 0 5 1-2 9-4 14-3 17-2 17v471l-5-2-4-8-1-5-4-7v-6l-5-6-3-12 1-6-1-2-1-12-2-8-1-7-3-5-1-6-2-7 2-2-2-15-1-3-3-1 1-5 1-1v-19l-1-10-2-6v-11l-1-2h-2l-1-8h2l-1-5v-16h-2v-5h2v-5l-2-1 2-8v-10l-2-3 1-8-1-1-1-8 1-5-1-5 2-8v-19l1-5-1-5 1-8v-7l-1-2h2v-5h-2l-1-6 4-2 1-6h-2l1-10 3-5h-2v-5h3v-4l-2-1v-5l3-1-1-8h2v-9h-2l3-10 2-4-1-5 1-9 3-1 1-5v-7l-3-1 1-6 4-2 2-11h1l3-21 3-11 2-10 2-8 4-10 6-12 1-6 3-6z" fill="#08062E"/>
<path transform="translate(889,256)" d="m0 0 2 2v8h2l1-2 3 7 2 4 3 11 3 12 7 21 3 4 1 4v14l3 7 2 4 1 4h-2l1 9 2 1v11l3 6v5l1 5v2l2 1-1 10v5l2 1 2 6-1 12-1 4 1 7 1 14 2 1v7l-3 6 5 7v2l-5 1 1 4v6l1 4v13l1 4-1 1-1 11 1 4v2l-1 9 1 4-1 8-2 3-1 7 3-1-1 11-1 4-2 9-2 1 1 4 1 3 4 2 1 3-1 2 3 1-2 8-6 1-4 6-1 7 1 5-1 3h-2l-3 12-1 13-5 17-2 9v13 4h-3l-2 9-3 8-2 16-4 1-1-11v-17l-1 40-1 9-2 1 1-32v-434z" fill="#08062E"/>
<path transform="translate(586,88)" d="m0 0 4 1 2 1 2 7 2 3 5 1v4h10l4 2h10v-1h6l3 3 2-2 1 3 18 2 20 1 2 1 11 1 7 1 12 1 9 2 20 3 10 2 11 1 2 1v2l4 1 6 3 10 2v2l3 1-2 1 1 2-21-3-9-1-481-1 3-3h5l-5-1 1-2h6l1-2 2-2h5l3-3v2h2v-3h2l1-2 6 3 7-2h5v1l10-1 3-2 8-1h8l4-1 6-1 1-2h15l10-3 5-3 9-2 3 1 4-2h13l3-1v2l2-1 14-1h3 3l1-2 10 1-1-4 3-1v2l9 1 7 1h8l7 1 10-1 3-2h3l1 2 11-1 4-1 5 1 3 1 4-2h8l2 3 1-2h8v2l6-1 7 2 1-3 14-2v-2h2v-2h2l1-3h2v-2z" fill="#08062F"/>
<path transform="translate(486,290)" d="m0 0h36l15 2 13 2 6 2 15 3 21 8 8 4-4 1 9 5 1 2-5-2-24-10-22-6-18-3-26-2h-15l-4 2-21 4h-7l-13 5-13 2-9 4-12 7-7 4-14 10-9 10-7 8-5 5-8 9-7 10-4 6-4 4-2 6-14 28-2 1-1 6-2 5 1 1 1-5 11-23 12-20 7-8v3l-10 15-4 9 1 2-7 15-5 15-1 5h-2l1 3-2 1 1 4-1 1-2 11h-2v15l-3 15-1 1-3 17-11 21h-2l-2 6-3 4 1 1 4-6 7-9 5-5 5-10 2-8h2l1-8 3-15 2 1 1 4 2-15 4-21h1l-1 18v42l4 28 1 12-2-1-8-24-1-4-2 5-2 12-2 6h-2l-1 6 2 13 4 11-1 2-5-8-4-12-2 1-1 3-2 1-2 13 1 3-1 4 3 2v3l3 5 4 2 5 7 5 2 2 4 6 2 7 6 19 7 19 5v1l-10-1-9-2 9 4 7 3v2l6 2v2l-31-2-8-2-17-2-22-6-15-6-22-11-10-7v-2l-4-2-7-9-3-11v-9l3-13 3-7 8-14h2l2-4 6-10h2l2-4 6-8 4-7h2l1-4 2-3h2l3-10 5-17 5-19 6-16 1 3h2l1-6 7-15 9-19 8-13 4-7 5-5 4-6 2-4 5-5 5-6h2l1-3 3-3h2l2-4 11-9 14-10 13-8 16-8 15-6 9-2 2 1 22-5z" fill="#52A6FB"/>
<path transform="translate(519,359)" d="m0 0 5 1 6-1 3 1 6 1 7-2 12 3 3 1v2l10 3 10 5 2 2h4v2h3l2 2 5 3 4 3v2h2l5 8 4 5 3 3-1 2h2v2h2l4 10 1 5 4 6 3 10 4 13v7l3 6 1 9-1 5v7l-2 4v3l-4 10-5 4h-2v2l-9 2 1 3-5 3-3-1-1-3-1 3v-2l-3 1-2-3v-3h-2l-2-4-4-4-5-3-3 1-3-2v-2h-2l-2-5-1-9-1-4h-2l-1-6-4-1-2-7 3-6-3-3v3h-2l-1 4-2-1 1-5 4-8 6-26v-8l-4-5h-93v-1l20-1 5-1-21-1v-2l-7-2-6-3h-3v-2h-10l-2-4-2 7-7-2-3-1v-2h-2l-1 2-1-3 2-4h3l1-2 6-3-2-1 8-3 3-1v-2h2v-2h4v-2h3l1-3 3-1 5 1v-2l10-4h11l2-1h13l4-1z" fill="#070522"/>
<path transform="translate(510,249)" d="m0 0h27l26 3 19 4-3 3-10-1-21-3-21-1-22 1h15l9 2 12 1 1 2 20 5 5 1 1 2 8 4v-2l4 2 12 4 12 5 15 7v2l5 2 16 9 12 7 7 6 4 4 2 5 8 7 5 4 7 8 8 8v2h2l11 14 4 5-1 2-10-10v-2h-2l-7-8-12-12-11-9-10-8-11-8-6-4 2-1 11 7 3 2-1-1-1-4-5-2-10-5-10-7-16-8-9-6-11-4-14-5-19-5-17-3h-39l-18 2-19 3-9 3-8 2-29 12-11 6-16 10-13 10-14 12-13 13-9 11-14 20-12 20-11 22-6 16h2l2-9 3-5 4-10 9-17 10-16 12-16 5-7h2l2-4 11-12 5-5h2v2l-3 3h-2l-2 4-7 8h-2l1 1 5-5 4 2-1 3-5 2-2 4-7 10h-2l-2 6-3 3-7 13-5 8-7 14-3 11-1 8-4 6-2 6h-2l-1 7-2 4h-2l-2 8-2 3-3 7-2 7-5 12-3 6-2 1-6 12-4 4-4 6-7 6-3 7-1 2h-2l-3 9-8 16h-2l-2 13 2 13 1 4-3 2 2 7h2l3 7 3 4-4-2-9-8-3-4v-3h-3l-3-5-2-7-2 9v7l4 7v2l3 1-1 1 2 1v5l-4-2-9-12-4-8-2-8v-10l2-10 4-9 6-10 9-11 6-7-6 5-9 11-2-2 1-3h3l2-5 4-6 3-2 6-7 11-9 2-3h2v-2h2l2-4 9-11 8-16 7-18 10-30 3-7 2-9 2-5-2-1 2-1 2-7 1-2h2l1-6 1-2h2l2-8h2l1-4 3-5 1-4 4-4 3-7 2-1 4-7 4-5h-2l-2 4-12 15-8 12-8 13-6 10-11 23-7 14-1-2 8-19 10-19 13-22 9-14h2l2-5 2-3h2v-2h2l2-5 3-1 2-4 7-8 15-15 13-10 14-10 17-9 6-3 1-3 23-10 19-6 15-4 25-4z" fill="#7823E2"/>
<path transform="translate(522,253)" d="m0 0h11l21 2 15 2 10 1 2-2 2-1 17 5 16 6v2l5 1 6 5v2h-2v-2h-5l-9-3v2l9 5 4 2v2l5 1v2l3-1v2h2v2h3l3 3 12 9 5 5 3 2v2l4 2 5 3v2l5 2v2l4 2v2l5 2 2 6 3 2v3h2l5 5 18 22 5 6v2h2l2 5h2v2l4 2 6 5 5 3v2l6 2 16 8 14 5 21 6 7 3-2 2 10 6 5 2v3l-5-1v-2l-4-1-14-7-9-3-16-6-5-1 4 4 10 4 7 4 4 1-1 1 5 2 4 2 9 5 8 6v2h2l1 2 3 1 7 8 1 2 3 4v2h2v3h2l3 8v-13l2 1 3 5 1 15-1 12v3l-2 1v6l-5 11v3h-2l-2 5-8 14 1 2-7 8-5 6h-2v2l-4 3h-2l-2 4-3 4-2 5-7 6h-2v2l-9 7-8 7-14 10-11 8-9 6-3 3-9 6-9 5-9 6-11 6-15 8-10 4-31 15-32 13-32 11-25 7-11 3-27 5-20 4-39 5-18 1h-14v-1l8-2 13-1 10-1-4-1-5-1v-1l28-2 32-5 20-4h5l1 2v-4l32-8 26-8 9-3 10-2 29-12 26-12 19-10 6-1 1-3 6-2 20-12 19-13 15-10 10-7 4-8-5 2-13 9-5 3-5 2v2l-13 8-25 15-2-1 19-12 14-9 7-5h2v-2l7-4h2v-2l8-6 10-8 6-5v-3l5-7 3-3 6-7 5-4 2-4h2l5-10 3-3 1-5 4-7h2l4-10 3-8 2-7 1-9v-10l-3-10-4-8-7-8v-2l-5-2-10-7v-2l-5-2-8-3v-2l-5-1-7-4-10-5-12-5-3-1-1-4-5 1 1-2-12-5-5-3v-2l-5-2-2-1v-2h-3v-2l-4-2v-2l-4-2-2-4h-2l-6-7-1-4h-2l-3-4-1-5h-2v-3h-2v-2h-2l-3-6v-2l5 2 5 4-7-7v-2l-4-2-10-9-2-1v-2l-4-2-16-11-9-6 1-2 15 9 11 8 22 18 18 18v2h2l8 10h2l-11-14-3-3v-2h-2l-7-8-8-8v-2l-4-2-12-12-1-4-5-3-4-4-9-5-13-8-11-6v-2l-4-1-11-5-15-6-12-4h-1l-6-2-8-4-16-4-9-3-15-2-2-1h-21l3-2z" fill="#5511B3"/>
<path transform="translate(463,905)" d="m0 0 3 1h9l2-1 4 1 6-1 1 3 1-2 14-1h8l5 1 6 1 3-1h24l9-1h34l4 1 3-1h10l6 3 6-1 4 1h4v4l12-1 5-2v2l7 1 3 5v2l7 2h3l2 4-5 2-4 2-2-1v5l-3 1-1 2-3-1-6 3-8 1-3 2-6 1-6-1h-2l-2 7-7 7-6-1-3-3v-2h-3v-2l-4-2-7-3-7 1-6-1-4 1v-2l-7 2-5 1-4 1-9-2-5 1-2-2h-7v2l-13 1-7-2-9 3h-7v-2h-6l-6 3-1-3-4-1v2l-5 1v-3l-7-1-4 1v2l-8-1-5-1h-3l-1 2h-4l-1-5-8 1h-3l-3-3v2l-3 1-8-2-4 2v-2l-3-2h-10l-2 1-5-2v-3l-7 1-4 2-3-2v-3l-7-2v2l-3 1-2 2-5-3-2-6v-3h2v-2l2-2 4-1 3 2 3-4h2v-2l-2-1h9l1-3h5l1 3 3-1h6l-1-2 8-2 9 3 5-2 5 2 1-3 11-1 10 1h6l6-1z" fill="#070522"/>
<path transform="translate(464,424)" d="m0 0h95l-1 10-5 14-7 11-10 10-11 9-6 7-2 5v8l6 10 10 8 10 9 9 14 6 16 1 10h-95l1-9 4-12 6-11 8-10 10-9 8-7 4-5 2-4v-9l-4-8-11-10-9-7-9-11-6-12-4-14z" fill="#08062E"/>
<path transform="translate(454,408)" d="m0 0h116l4 4v8l-6 26-9 17-12 13-13 11-5 4v5l17 14 9 9 7 11 7 16 4 18v12l-3 3h-116l-4-5 2-17 5-17 7-14 8-10 10-10 13-10v-5l-9-8-11-9-8-8-8-13-5-13-3-14-1-6v-8zm10 16 2 11 6 15 7 9 4 5 11 9 10 9 3 7v9l-5 8-7 7-11 9-7 8-8 14-5 17v4h95l-1-10-6-16-7-11-9-10-14-11-5-9v-8l4-8 7-7 11-9 7-7 8-13 4-12 1-10z" fill="#5E5BF0"/>
<path transform="translate(495,318)" d="m0 0h33l19 3 15 4 6 2v2l4 2-5-1-16-4-12-2-4-1-20-2-32 3-12 3h-7v2l-5 1v2l-6 1-4 3-8 3-10 6h-2v2l-7 4-15 11h-2l-2 4-3 1-2 4-5 5-4 5-3 4h-2l-2 5-3 5-4 6-7 12-12 28-4 20-1 4-2 9-1 16-1 1v31l2 10 5 16 6 16 9 16 7 9 12 13 13 10 21 11 17 6 20 4 15 1h8l8 1 30-4 19-3 17-2v-2h5v-2l10-2 15-7 10-4 15-9 14-7 4-3h3l1-3 5-2v-3l5-3 5-5 9-11 6-9 8-17 8-24 2-25 2-3-1 33 4-16 2-17 2-2v10l2 1v19l-1 5-3 10-4 12-3 6-2 3h-2l-1 6-11 13-4 5h-2l-1 4-12 8-7 6-8 4-7 3-14 9-4 1-3 3-18 8-21 8-33 9-32 6-19 2h-7v-1l-7-1 1-2-37-2-7-2-15-3-8-1-9-2-10-2-9-4-10-3 3-1 20 5-30-10-6-3v-2l-7-4-2-1v-2l-3-1-5-3-5-7-4-2-4-7 1-1-3-2 1-6-1-2 2-12 3-1 1-4h3l5 14 3 4-4-11-2-14 2-5h2v-5l2-6 3-16 2 4 7 23 2 5-1-14-3-16-1-9v-36l3-22 9-27 9-19 10-16 11-14 7-8 8-7 9-8 15-10 14-8 20-8 17-5z" fill="#2D30B5"/>
<path transform="translate(515,320)" d="m0 0 22 2 10 2 6 2 14 3h1l3-1 20 9 15 9 13 10 10 9 12 12 10 13 7 11 12 23 7 21 4 18 1 8v17l-2 25-3 9-3 10-5 12-7 13-8 11-7 8h-2l-2 4-2 2h-3v3l-5 3-1 2-7 4-19 10-12 7-15 6-8 4-10 1v2h-5v2l-17 3-49 7-16-1-15-1-20-4-19-7-19-10-10-8-10-9-9-10-8-13-8-16-7-21-3-18v-27l1-5 1-12 2-12 1-1 4-20 3-7 7-17 3-6 2-1 2-6 7-10 2-4 3-5 4-4 6-7h2l2-4 9-9 19-14h3v-2l11-6 16-8 3 1v-2l5-1v-2l16-3 3-1zm-14 6-19 3-9 2-12 3v2l-5 1-10 4-1 2-6 2-11 7-9 6v2l-5 2-1 3h-3v2l-3 1v2l-4 2-14 16-1 3h-2l-2 6-3 1-2 5-6 9-6 14-4 9v5l-2 1-2 9-2 7-3 12v10l-2 6 1 4-1 7v8l1 8 1 5 3 20 6 18 3 6 2 5 3 3 4 7 3 3 3 6 5 5 4 5 5 4h3v2l10 5 5 3 9 2 7 2 7-1v-2l12 6 7 3 10 2 7 2 10 2 10 1 4-1 14-1 5-1h4l12-1 12-3 3-1v-2l4 2 6-2 11-4 12-4 7-3 4-2v-2l3 1v-2h3v-2h2v-2l5 1 11-6v-2l4-2 8-8 2-1 1 3 7-3 3-3v-2h2v-3l4-1 2-5 4-2 3-5v-3l4-2 3-5v-3l2-1 5-14 2-5 2-12 2-14v-21l-1-11-2-7-2-11-3-8-4-12-8-17-1-3h-2l-2-6h-2v-4h-2l-2-5-6-8-5-5-2-3h-2v-2h-2v-2h-2l-1-3h-2v-2l-5-4h-2l-1-3h-3v-2h-2v-2h-2v-2l-12-7-4-3-9-2v-2l-3-1-1 2-7-4-9-3-10-1-2-4-9-1-12-3z" fill="#1B1B8B"/>
<path transform="translate(264,135)" d="m0 0h487l23 3 10 3 7 1 12 5 19 10 13 9 10 9 8 7v3l-7-7-4-2v-2h-7l-14-10-19-10-13-5-6-1-4-1h-2l-1-2-2 1v-2h-11l-19-2-5-1-4 1-5-1-3 1-6-1h-22l-4-1-31 1h-32l-32-1-10 1-8-1-2 1h-13l-5-1-22 1h-27l-3-1h-221l-3 1-1-1-11 1-5-1-1 2-15 1-17 4-13 5-19 9-14 10-11 9-12 13-10 15-7 12-8 20-4 15-5 39-1 17v423h-1l-1 14h-1l-1-17v-447l4-30 4-15 8-22 8-14 10-14 12-13 11-10 13-9 12-7 19-8 21-5z" fill="#1B1D8A"/>
<path transform="translate(246,523)" d="m0 0v3l-8 8-10 14-3 5-4 13-1 5v10l4 13 8 11 5 5-1-4-2-2-5-10v-10l3-7 2 4 3 9h3v5l7 9 2 1v2l4 2-1 2 2 1v2l5 2 5 4 26 13 7 3v2l3 1v2l11 2 3 2-3 1 27 6 19 3 27 3 38 1h9l-4 2-43 1-1 1h-18l-20-1 19 3v1l-22-1-30-4-27-6-26-8-3-1 21 8 2 3 15 5 14 4 3 3 10 2 13 2 4 2v3l15 2-1 2h-9v3l24 3 11 2 23 2-2 2 5 1 13 1 2 1v2h27l4 1h10l20-2h7v1l-17 3-32 3 2 2-31 1-11-1v-1l25-2h-14l-1-1-47-2-8-3 1-3-16-1-1-2h3v-2l-8-1-13-3-6-2-15-4-1-3 1-3-5-2-7-2-3-1v-3l-10-3-16-5-3-2-2-4-12-5-11-6-8-7-8-6-5-5-2-1-1-5-3-4-1-6 6 4 5 6 10 8 10 6v3l7 1v-3h2v-2l11 1 5 1v-2h-3v-2l-5-2-1-2 1-2-4-1-9-7-7-6-7-10-4-8-2-7v-13l3-11 3-10 3-1 2-6h2v-2l5-5 7-8z" fill="#7823E2"/>
<path transform="translate(739,429)" d="m0 0 10 2 20 8 10 6 5 5 5 15 1 8-1 10-4 10-9 15h-2l-2 5-6 8h-2l-2 4-3 1-2 5h-2l-1 3-8 7-5 5h-3l9-10-5 4-10 9-16 13-24 16-21 13-17 9-8 4-4-1-9 4-3 1h-8v2l-7 3h-3l-1 2-6 3h-6v2l-4 2h-5v2h-3l-1 2h-4v2l-11 4-7 3-9 1v2l-15 4-12 1v2l-31 6-6 1h-9l4-2-17 1-21 1h-22l-12-2-29-2-18-2 3-2-29-5-28-7-16-5-1-2 9 1 8 3 9 3 24 5 11 2v-1l12 1 10 1-9-2v-1h18l26 1-20-3-9-3 1-3h7l13 3 14 2 9 2 1 1 15 1 32 1v1l-10 1 7 1v1l16-1 21-3 28-6 28-8 25-10 11-5h2l1-3 7-3 14-9 8-3 6-4 12-9 5-2-4 6-10 7-13 8-12 7 21-11 7-4 4-4 8-5 2 1-3 3h6l12-6 11-7 4-3h2v-2l10-6 11-8 4-5 5-3 1-2h2v-2l5-3h2l2-4h2l2-4h2l1-3h2l2-4 8-9 2-3h2l2-5 4-6h2l1-4 4-7h1v8l-6 15h2l2-6 3-7 2-6 1-7v-11l-3-10-6-8v-3l-4-2v-2h-2l-3-3v-2h-2l-3-4v-2h-3v-2l-5-1v-2l-5-2-2-2z" fill="#5921DA"/>
<path transform="translate(500,235)" d="m0 0 5 1v1l-26 4-28 8-17 6h3l12-4 7-2 12-3 13-2 18-2 9-2h24 3 18l2 1-1 2-7-1 6 2 14 3 1 2h3v2l10 4-3 1-21-4-20-2h-27l-17 2-20 3-15 4-24 8-18 8 1 2-23 12-12 8-14 11-10 9-13 13-4 6-4 4-1 2h-2v2h-2l-4 8h-2l-2 5-12 19-10 17-11 23-3 9 10-22 8-15 8-14 10-15 10-13 7-9h2l-2 4-4 5-2 4h-2l-2 7-3 4h-2l-1 5-4 8h-2l-1 6-2 4h-2l-1 6h-2l-2 9-3 9-2 9-9 25-8 24-8 16-6 9-8 10h-2v2h-2l-2 4-13 11-3 5v1h-5l1-3h2v-2h2v-3h3l2-4h2l2-5 2-4h3v-2l3-2 1-4 6-4 2-7 3-6 3-10 1-5 2-5h-2l-2 8h-2l-2 6-10 13-1-2 10-20 6-15 5-16 10-24 10-20 8-15 6-10 1-7h2l2-3-1-2h2l-1-3 4-7 5-5 4-7 3-1 2-5 1-2-2-1 9-10 5-6 5-2v-2l8-7 9-7h2v-2l19-12 9-6 16-8 25-10 27-8z" fill="#5511B3"/>
<path transform="translate(530,300)" d="m0 0 16 1 20 4 24 8 16 8 7 2 8 4 11 8 15 14 8 7v2h2l9 11 9 10 8 10 9 10 11 9 8 5 19 8 24 9 3 3-8-1-10-2 9 6 2 1v2h3l3 4v2h2v2l3 1v2h2l4 4 8 14 2 7v11l-2 10-3 8-4 8h-2l1-5 4-11v-6l-5 10h-2l-2 5-4 6-5 5-2 3h-2l-2 4-6 7-7 6-4 4-4 1v2h-2l-2 4-6 4-5 5-5 4-11 7h-2v2l-17 11-12 6h-6-3l5-5 5-4 13-10 9-7 12-9 15-14 8-7 1-2h2l2-4 3-4h2l2-4h2v-2h2l2-4 2-3h4l3-1 4-10h2l1-8 2-8v-7l-2-9 1-2h-2l-4-10-7-7-8-4-1-2-6-1v-2l-7-1-5-3-1-2-6-2-11-6-6-4v-2h-3v-2h-2l-4-4v-2l-3-1v-2l-4-2-5-5-4-5v-2h-2l-6-9-2-1-2-6-3-1v-2h-2l-5-6-3-3-7-8-10-8-4-5-17-12-12-6v-2l-9-3-10-5h-2l-1-2-3 1-8-3-7-2-1-2-13-2-9-3z" fill="#4E8FF8"/>
<path transform="translate(369,331)" d="m0 0h2v2l-3 3h-2l-2 4-7 8h-2l1 1 5-5 4 2-1 3-5 2-2 4-7 10h-2l-2 6-3 3-7 13-5 8-7 14-3 11-1 8-4 6-2 6h-2l-1 7-2 4h-2l-2 8-2 3-3 7-2 7-5 12-3 6-2 1-6 12-4 4-4 6-7 6-3 7-1 2h-2l-3 9-8 16h-2l-2 13 2 13 1 4-3 2 2 7h2l3 7 3 4-4-2-9-8-3-4v-3h-3l-3-5-2-7-2 9v7l4 7v2l3 1-1 1 2 1v5l-4-2-9-12-4-8-2-8v-10l2-10 4-9 6-10 9-11 6-7-6 5-9 11-2-2 1-3h3l2-5 4-6 3-2 6-7 11-9 2-3h2v-2h2l2-4 9-11 8-16 7-18 10-30 2-5h1l-1 8-7 18-7 22 2 3 2-9 4-11 7-19 3-7 7-16 12-22 11-16 12-16h2l2-4 11-12z" fill="#5A37EA"/>
<path transform="translate(432,417)" d="m0 0 3 2h-2l3 6 1 7 5 2 1 5 1 6 1 3 2 1h-2l-1 3h-2l3 8-1 11h-2v3l4 4-4 5 1 8-3 4-4 8h-2l-1 3-7 5-1 4-4-1v2h2l-1 2-2-1v4l-3 1-2-1v2l-4-1-2 6-2 1-4-2v-2l-3-3v-3l2-7v-13h-2l-1-2h-5l-3-4h-2l-2 2-2-4 2-2-2-13 2-14 2-5v-6h2l1-3h2l2-7 5-4 1-1 2-5 6-3v-2l7-4 7-1 6 1 1-3z" fill="#070522"/>
<path transform="translate(499,311)" d="m0 0h28l21 3 19 5 20 8 15 8 16 11 15 13 13 14 10 13 13 21 7 12 8 10 11 10 17 12 8 4 5 5 7 9 1 8 1 9-2 11-6 17-9 14-9 11-18 18-2-1 9-9 9-12 7-10 6-11 4-16 1-7v-5l-2-1-1-7-5-8-7-10-8-6v-2l-4-2v-2l-3-1v-2h-2l-10-14-4-4 2 9 1 6-2-2-8-17-1 2-10-19-6-10-10-14-12-13-10-10-13-10-13-8-16-8-15-6-14-4-14-3-9-1h-33l-20 3-20 6-21 9-18 11-14 11-13 13-9 10-12 18-10 19-8 22-3 10-2 14-2 2 1-14-4 21-2 20h-1v-24l3-20 6-21 9-21 9-16 10-14 11-12 8-9 11-9 10-7 15-9 21-10 18-6 20-4z" fill="#8BE2FB"/>
<path transform="translate(464,424)" d="m0 0h95l-1 10-5 14-7 11-10 10-11 9-6 7-2 5-1 8-3-3-1-5-2 7-2 1-2-12-4-6-10-9-9-7-9-11-6-12-4-14z" fill="#08062D"/>
<path transform="translate(478,281)" d="m0 0 5 1v2l11-2h24l9 2 8 1 7 2 1 1 11 2 21 6 17 6 16 8 11 6 1 2-1 1 15 11 8 5 5 5v2l4 2 8 7 7 8v2l3 1v2l3 1 12 16 11 13h1l-11-14-10-13v-3l3 3 3 1v2l3 1 1 4 5 2 4 4v2l4 2 9 9 17 12 11 5 15 7 5 2 3 3 16 6-3 1-4-1 7 3v2h2v3l-9-3-10-3v-2h-9l-25-10-14-6-11-8-12-11-11-13-8-10-10-11v-2h-2l-5-5-1-3-4-2-7-7-11-9-7-5-7-3-7-4-4-4-7-4 3-1-21-9-15-4-11-2-6-2-14-2-9-1h-36l-15 4-10 2-4-1-12 4h-7l-14 7-5 2h-3v2l-3 1-3 3-6 3-8 5h-2v2l-4 1-2 4-4 1v2l-6 2v3l-6 3-1 5-3-1-1 2-2 1-4-4-2 4-3 1v2l-2-1 1-2h2l2-4 7-8h2l1-3h2v-2l10-8 4-3h2v-2l18-12 5-1 1-2 9-3 5-3 11-4 4-2 7-2 13-4z" fill="#5C52F1"/>
<path transform="translate(670,421)" d="m0 0 2 1 8 17-3-9 1-4 7 7 3 5 3 2v2l1 3h2l5 6 2 1v2l4 2 6 5 4 6 6 10 2 7 2 9-3 14-3 9-9 15-10 13-9 10-1 2 3 1-24 18-19 13h-2l-1 3-24 13-6 2 3-3 18-10 12-8 5-4 4-8 5-5 9-10 4-9h2l1-4 5-10 4-13 1-5v-4h2l-1-9v-10l-1-1-1-8-3 23-4 15h-1v-16l1-22-2-22-4-18-6-18z" fill="#5AB8FB"/>
<path transform="translate(672,630)" d="m0 0 3 1-16 9-13 7 16-7 2 1-19 10-23 10 11-4 17-7 14-7h4v2l-25 12-26 11-13 5-12 2-10 4-35 10-14 3h-3v2l2 1-3 2v-3l-36 7-21 3-28 2h-9l3-2 32-3 10-2-20 2h-11-1l-3-1h-28l2-1v-2l-33-2v-1l13-1-29-3-5-1-19-3-3-1v-3l9-1 1-1-13-1-2-1-2-3-5-2-14-2-9-2-1-2-26-8-4-2v-2l7 1 23 6 7 3 30 5v3l1-2h5v2l18 2 3 3 7 3 2 2h-14v2h7l4 1v2h15l28 1h11l6 1h6l-2 2h11l46-5 3 1v2l14-3 4-1 20-4 26-7 18-6 8-4 16-6h6l1-2 8-4 20-8 25-12z" fill="#A923E5"/>
<path transform="translate(668,444)" d="m0 0 2 1 4 14 1 3 1 9 1 14-1 4 1 10-1 5-2 13-1 6-3 10-3 9-6 11-5 8-4 6-8 9-3 3-5 3-4 4h-2v2l-6 3 5-1-5 5-16 8-14 8-15 6-8 4-10 1v2h-5v2l-17 3-49 7-16-1-15-1-20-4 1-2 15 2 17 3v-2l-4 1v-2h-8l-8-3-7-1-4-2-3 1v-2l-6-1-8-3-10-3-5-2-5-3-7-3-17-17-5-6v-2h-2v-2h-2l-1-5h-2l-4-7-4-10-3-7-2-10-1-7-3-19v-15l2 1 1 10 1 5 3 20 1 7 2 1 3 10 3 6 8 14 4 4 5 10 4 2 5 5 5 3v2l5 2 9 4 8 3 9 2h5v-3l6 2 8 4 7 3 10 2 7 2 10 2 10 1 4-1 14-1 6-1v2l5-2 15-2 7-2h2l1-2 4 1 6-2 11-4 12-4 7-3 3-1 1-2 6-1v-2h2v-2l6-1 9-4 13-13 5 1 5-1 1-3h2v-2h2v-3l4-1 2-5 4-4 2-1 1-5 5-5v-2h2l1-5 5-13 2-5 2-12 2-14v-21l-1-11-2-7-2-11-1-3z" fill="#280C7F"/>
<path transform="translate(689,483)" d="m0 0h1v10l2 1v19l-1 5-3 10-4 12-3 6-2 3h-2l-1 6-11 13-4 5h-2l-1 4-12 8-7 6-8 4-7 3-14 9-4 1-3 3-18 8-21 8-33 9-32 6-19 2h-7v-1l-7-1 1-2-37-2-7-2-15-3h-2v-3l2-1-7-3-1-2-14-7-9-10-7-4-2-2v-3h-3v-3h-2v-2h-2l-3-7-2-5-2-10-2-5 1-3 5 6 5 8 2 5 9 11 5 5v2l5 2 4 5 7 4 8 5v-2l5 2 17 8 14 5 20 4 15 1h8l8 1 30-4 19-3 17-2v-2h5v-2l10-2 15-7 10-4 15-9 14-7 4-3h3l1-3 5-2v-3l5-3 5-5 9-11 6-9 8-17 8-24 2-25 2-3-1 33 4-16 2-17z" fill="#321FAD"/>
<path transform="translate(504,304)" d="m0 0 5 2h17l16 1 12 3 3 3 9 1 1 3 4-1 10 4v2l5 1v2l5 2v2l-6-2-21-8-21-5-16-2h-28l-17 2-21 5-20 8-21 11-12 8-10 8-9 8-7 8-8 9-10 15-9 16-8 19-6 21-3 20-1 11-2 4-4 18h-2l-2 10-4 8-4 5h-2l-2 4-7 9-4 4 1-4 5-9h2l2-6 8-15 3-17 2-7 2-9v-11l1-4h2l1-11 2-4-2-1 2-4h2l1-8 6-17 5-11-1-2 4-8 10-15h-1l-7 10-12 21-9 19-1 3-2-1 3-7v-5h3l2-6 11-22 2-7 6-6 11-15 10-12h2l2-4 11-11 5-6 14-9 2 1-14 11-2 3 6-3v3l3-3 3 1-1 1 5-3h2v-2l16-9 4-2 4 1 1-3 7-3 3 1-1 1 21-6h3v-2l11-3 9-1h9z" fill="#5AB9FC"/>
<path transform="translate(755,559)" d="m0 0 1 3-4 7-6 5-5 5-11 8-10 7-2 1-2 4-9 6-7 5h-2v2l-5 3-2 5-10 6-6 4-16 8-17 8-20 8-12 6-9 2-17 7-8 3-21 7-19 5-19 3-12 3h-4v-2l-14 1-35 4h-18v-1l7-1h-7l-5-1h-15l-37-2-6-2-5-1v-2l12-1-7-3-3-3-18-2-4-2-2 1v-3l-13-1-21-4-6-3-27-7-21-8-7-3 3-1 19 7 26 7 15 3-1 3h7l23 4 15 2 2 1 27 2 23 1-2 2 9 1 1 2 4 1v3l-24 2 9 1 4 1h12l7 1 39-2 16-2 2 1 12-1 34-7 6-1 1 2 9-2 1-2 19-5 26-8 22-8h4v-2l11-4 9-4 2-2 5-3 22-11 12-8h2l1-2 13-8 5-6 5-5 13-10 14-10 13-11z" fill="#CB39F8"/>
<path transform="translate(504,269)" d="m0 0h39l20 4 23 6 12 5 9 4 6 4 16 8 15 10 5 2 5 3 1 3 2 1-1 2-14-9-10-4 9 6 16 12 2 1v2l4 2 10 9-1 2-6-4-5-5-16-12-17-11-18-10-25-10-16-4-20-4-15-2-14-1-2 1h-20l-1 1h-11l-6 1-13 2-20 6-7 2-14 6-5 2-7 3-14 7-11 8h-2v2l-8 6-6 5-5 2-11 11-6 8h-2l-2 4-12 16-10 16-10 18-4 8-3 8-3 7-1 3h-2l-1 2 1-6 9-20 12-23 11-17 8-11 8-10 11-12 10-10 11-9 18-13 13-8 17-8 22-9 12-3 12-2 10-2z" fill="#6F22DF"/>
<path transform="translate(519,278)" d="m0 0 15 1 15 2 24 5 12 3 25 10 11 6 20 12 17 13 8 6 1 2 6 3h2l7 8v3l-8-7-2-1 3 6v2h2v2h2v3h2l2 5 2 1v3h2l4 7 3 2v2h2l4 5 6 5v2h3v2l5 2 2 1v2l5 2 13 6 3 1 1 4 3-1v2l9 2 10 6 6 2 6 4 5 2v2l6 1 5 3 1 3-5-2-12-4-16-6-1-3-10-3-24-12-11-8-10-9-6-5-4-5-5-3-2-4-2-1v-2l-4-1h-1l14 18 8 10h-3l-10-11-14-19-5-4-4-6-8-7-7-6-5-5v-2l-5-2-18-13-2-1 1-2-8-5-16-8-16-6-17-5-10-3-8-1-3-2-9-2-7-1-12-1h-20l-9 1 1-3 4-1h9l5-1h16z" fill="#5A21DA"/>
<path transform="translate(658,389)" d="m0 0 5 5 3 1 7 7 4 5v2h3l4 5 11 8 10 6 32 16 1 3 6 4 7 8 4 6-1 3 2 5 1 15-2 8h-2l-1 5-3 6-3 1-2 2v-3h-2l-2 4-2 3h-2v2l-6 5-5 7h-2l-2 4-2 2-7 6-7 7-11 9-3-1 19-19 11-15 6-12 5-15 1-14-2-10-6-9-1-3-10-5-11-7-11-9-12-11-7-10-11-19-4-6z" fill="#5BB9FB"/>
<path transform="translate(739,429)" d="m0 0 10 2 20 8 10 6 5 5 5 15 1 8-1 10-4 10-9 15h-2l-2 5-6 8h-2l-2 4-3 1-2 5h-2l-1 3-8 7-5 5h-3l9-10-5 4-10 9-16 13-24 16-21 13-17 9-8 4-4-1-9 4-9 1 4-4 5-3 3-3 5-2v-1l7-1v-2l8-4 2-3h6l12-6 11-7 4-3h2v-2l10-6 11-8 4-5 5-3 1-2h2v-2l5-3h2l2-4h2l2-4h2l1-3h2l2-4 8-9 2-3h2l2-5 4-6h2l1-4 4-7h1v8l-6 15h2l2-6 3-7 2-6 1-7v-11l-3-10-6-8v-3l-4-2v-2h-2l-3-3v-2h-2l-3-4v-2h-3v-2l-5-1v-2l-5-2-2-2z" fill="#7F4CF9"/>
<path transform="translate(743,559)" d="m0 0 3 1-3 3h-2l-1 3-2 1-1 3-10 7-8 7-1 2h-3v2l-14 9-5 5-20 13-26 14-25 12-14 6-13 5-25 8-38 10-16 4-14 3-28 3-7 1h-15l1-2 34-6 21-5 1-1 13-2v-2l17-5 15-6 21-7 13-5 28-11 20-9 15-7 2 1-4 3 25-13 23-14 12-8 10-7h2l1-3 14-10z" fill="#D876FC"/>
<path transform="translate(184,225)" d="m0 0 2 2 5-1 2-1 2 5 1 5-1 1 2 2v3h-3l-2 3-1-5-5-1-3 5-2 1v8l1-1 3 1v2l6-2h2l1-6 4 1 1 3h-2v4h3l2 2v3l-6 3h-3l-1 2 2 1v3l1 5-3 6-1 5h-2l-1 3-6 2 1 4 2 2-2 5-2 1 1 3-4 4-4 1-3 1v-2l-5 2v-2l-2 2-1 3-1 1 1 2h-4l1 4-2-1-2-5-3-1-3-6v-7l2-4-1-2h2l-2-6 2-2v-6l-1-3 1-2-2-1 3-4 1-4 1-6 4-3 2-2 3-1 2-9-2-1 2-5-1 1-3-1h2l2-4 4-3 7-2v-2z" fill="#070522"/>
<path transform="translate(739,437)" d="m0 0 10 4h3l3 3 3 1v2l3 1v2h2l4 4 8 14 2 7v11l-2 10-3 8-4 8h-2l1-5 4-11v-6l-5 10h-2l-2 5-4 6-5 5-2 3h-2l-2 4-6 7-7 6-4 4-4 1v2h-2l-2 4-6 4-5 5-5 4-11 7h-2v2l-17 11-12 6h-6-3l5-5 5-4 13-10 9-7 12-9 15-14 8-7 1-2h2l2-4 3-4h2l2-4h2v-2h2l2-4 2-3h4l3-1 4-10h2l1-8 2-8v-7l-2-9 1-2h-2l-4-10-8-8-3-5z" fill="#6C7FFA"/>
<path transform="translate(246,589)" d="m0 0 7 4 3 7 2 3 1 3 2 1 3 1v2h2v2l5 2 6 3 12 5h2l-11-5v-2l9 3 25 10 15 4 23 5v1l-12-1-21-5-13-4-5-2h-4l27 8 28 6 23 4-1 2 37 3 12 1 9 1h24l25-2h5l1 2-2 2-27 3-17 1h-51l-42-4-32-6-4-2-12-4v-2l-4-1-2-2-1-2-4-1-18-8-11-7-6-4v-2l-3-1v-3l-2-1v-2l-4-2-6-8v-2l4 2 5 5 7 6-5-6v-4h-2l-2-4z" fill="#794FF8"/>
<path transform="translate(454,408)" d="m0 0h116l4 4v8l-6 26-7 13-5 2-7 7-6 3v-2l-4 2 1-5 5-5 2-5 6-10 4-12 2-10h-95l-5-5-3-4-2-3-2 2 1-4z" fill="#3235BB"/>
<path transform="translate(192,164)" d="m0 0h2l1 3-16 13-12 13-10 15-7 12-8 20-4 15-5 39-1 17v423h-1l-1 14h-1l-1-17v-447l4-30 4-15 8-22 8-14 10-14 13-12 10-9z" fill="#1A1C63"/>
<path transform="translate(642,602)" d="m0 0 3 1v2l-20 9 5-2 3 1-15 7-20 8-24 9-22 7-21 6-23 6-49 8-17 2-40 2h-13l-28-1-4-2-14-2-1-2 26 1h15l1-1 33-1-33-1-35-4-25-5-21-5 4-1 29 6 21 3 33 3h51l26-2 24-3 28-5 9-1v-2l20-4 7-1v-2l15-4 8-4h4v-2l5-2h3v-2l9-2v-2l11-2 1-2 8-4h3v-2h8l1-2 9-3z" fill="#CB3AF8"/>
<path transform="translate(838,173)" d="m0 0 4 1v2l5 2 13 12 9 13 11 21 6 18 4 18 2 26v434l-2 36h-1v-28l-1-6v-238l-1-7 1-7v-5l-1-2h2l-1-7v-149l-2-32-2-14-7-27-6-15-8-14-9-12-12-13-6-5z" fill="#1B1C5F"/>
<path transform="translate(452,409)" d="m0 0 2 1v1l3 4 6 6 96 1v1h-95l5 18 6 12 8 9v2l4 2 15 13 4 5 2 5v9l-5 8-8 8-11 9-6 5-2 1-2 4h-2l-1 5-4 2v1l-1 3-3-6 5-10 3-1 3-8 5-6h2l1-3 5-4h2v-2l5-3-1-2 2-3v-5l-9-8-11-9-8-8-8-13-5-13-3-14-1-6v-8z" fill="#3C4BD8"/>
<path transform="translate(747,534)" d="m0 0 2 1-7 8h-2l-2 4-4 2v2l-7 6-13 10-2 5-4 4-6 2-5 4h-2l-1 3-17 11-8 4-8 5-30 15-27 11-25 9-26 8-26 7-42 9-31 4-27 2h-48l-15-1v-1l62-2 23-2 19-2 14-3 26-4 38-10 19-6 20-7 21-8 23-10-3 1-3-1 22-10 9-5 19-10 24-15 20-14 16-13z" fill="#D873FC"/>
<path transform="translate(325,447)" d="m0 0 1 2-4 17-3 12-5 19-8 16-4 6-4 4-1 2h-2l-2 5-8 11-5 10-2 7v9l3 12 7 10 6 7 11 8 18 10 17 7 12 3 20 6 22 5v1l-13-1-23-4-23-6-12-3-11-5-10-4-16-8-9-7-3-3v-2h-2l-7-11 1-20 1-5 3-3 5-9 10-14 9-11 6-8 8-14 6-15 5-19 4-16z" fill="#5AB8FB"/>
<path transform="translate(330,418)" d="m0 0 1 4-4 10-5 12-5 17-3 13-2 3-4 13-7 14-3 5-5 5h-2v3h-2l-1 3h-2l-2 4-10 14-7 10-4 14v11l3 9 6 9v2h2l6 7 13 8 9 4 21 9 22 6 29 6v1h-11l-8-2-17-2-22-6-15-6-22-11-10-7v-2l-4-2-7-9-3-11v-9l3-13 3-7 8-14h2l2-4 6-10h2l2-4 6-8 4-7h2l1-4 2-3h2l3-10 5-17 5-19 6-16 1 3h2l1-6 4-9z" fill="#4D71F4"/>
<path transform="translate(751,429)" d="m0 0h6v2l6 1 13 5 15 9 4 3v2l3 1 5 6 5 11v4l2 1 1 13-3 8-2 1-1-16-1-1-2 7-5 12-7 13-10 13-10 11v-3l2-2h-4l-5 5h-2l-1 2-6 1v2l-7 3h-3l6-7 7-6 2-4 5-5h2l2-4 6-9h2l2-5 6-10 4-10 1-11-1-7-5-15-5-5-16-8-8-3v-3z" fill="#8C34F4"/>
<path transform="translate(705,628)" d="m0 0 2 1-3 1-1 3-12 7-10 5-10 4-31 15-32 13-32 11-25 7-11 3-27 5-20 4-39 5-18 1h-14v-1l8-2 13-1 10-1-4-1-5-1v-1l28-2 32-5 20-4h5l1 2v-4l32-8 26-8 9-3 10-2 29-12 26-12 19-10 6-1 1-3 4 1 8-5z" fill="#7A16C5"/>
<path transform="translate(486,290)" d="m0 0h36l15 2 13 2 6 2 15 3 21 8 8 4-4 1 9 5 1 2-5-2-24-10-22-6-18-3-26-2h-15l-4 2-21 4h-7l-13 5-13 2-9 4-12 7-7 4-14 10-8 6-21 21h-2l-2 5-5 4-6 12-2 1-4 8-5 8-2 6h-2l-7 13-1-3 10-21 8-13 4-7 5-5 4-6 2-4 5-5 5-6h2l1-3 3-3h2l2-4 11-9 14-10 13-8 16-8 15-6 9-2 2 1 22-5z" fill="#6B80FA"/>
<path transform="translate(337,516)" d="m0 0 2 4 4 14v3h-2l2 10-2 10-1 9 1 7-1 5 7 9 12 11h-3l-8-6-6-5 10 10 2 4h2v3l4 1 5 5 4 2 3 3 9 4 5 5-10-2-21-7-6-3v-2l-7-4-2-1v-2l-3-1-5-3-5-7-4-2-4-7 1-1-3-2 1-6-1-2 2-12 3-1 1-4h3l5 14 3 4-4-11-2-14 2-5h2v-5l2-6z" fill="#3446D2"/>
<path transform="translate(348,535)" d="m0 0 2 1 7 21 8 16 9 14 14 15 13 10 4 4-2 1-11-7-5-3-17-17-7-9-3-7-4-7-3-1 2 6 2 9 3 7 1 5h2v2h2v3h3l3 5 8 5 7 8 6 3 1 2 9 3 2 3 9 2v1h-7l-1 3-14-3-10-2-9-4-10-3 3-1 20 5 1-1-3-2v-2l-9-3-5-3v-2l-6-2v-2l-3-1-1-2-3-1v-3h-2l-13-13 1-2 12 10 3 1-12-11-6-8 2-1-2-11 1-10 1-5-1-2 2-2-1-10h3l4 11-1-11z" fill="#2D33B6"/>
<path transform="translate(277,655)" d="m0 0 7 1 23 6 7 3 30 5v3l1-2h5v2l18 2 3 3 7 3 2 2h-14v2h7l4 1v2h15l28 1h11l6 1h6l-2 2h11l46-5 3 1v2l14-3 4-1 19-3v2l-10 3-2 1-7 1-12 2-4 2-4-1-7 1-19 2-17 2h-8l-1 3-2-1h-28l2-1v-2l-33-2v-1l13-1-29-3-5-1-19-3-3-1v-3l9-1 1-1-13-1-2-1-2-3-5-2-14-2-9-2-1-2-26-8-4-2z" fill="#AB24E6"/>
<path transform="translate(205,615)" d="m0 0 7 6 11 9 16 10 6 4v2l5 1 4 4 29 10-1 2 9 3 17 4 3 2-1 2 9 1 7 2v2l-3 1-1 2 14 3 6 1 1 2 10 1 4 1 18 2-1 3 13 1v2l2 1-1 1h40l18-1 4 1h10l20-2h7v1l-17 3-32 3 2 2-31 1-11-1v-1l25-2h-14l-1-1-47-2-8-3 1-3-16-1-1-2h3v-2l-8-1-13-3-6-2-15-4-1-3 1-3-5-2-7-2-3-1v-3l-10-3-16-5-3-2-2-4-12-5-11-6-8-7-8-6-5-5-2-1z" fill="#7614C2"/>
<path transform="translate(259,627)" d="m0 0 6 2 19 8 17 5 2 1v2l12 2 23 5 19 3 27 3 38 1h9l-4 2-43 1-1 1h-18l-20-1 19 3v1l-22-1-30-4-27-6-26-8-4-3 5 1 12 4v-3l-4-3 7 1 10 2 2-3-6-2-5-4-16-8z" fill="#901EDA"/>
<path transform="translate(280,479)" d="m0 0 1 2-6 11h-2l-2 6-6 7-4 4 7-6 9-8 1 2-4 7-3 3h-2v4h-2l-2 6-5 5-4 5h-2l-2 5-4 6-2 2-2 5h-2l-2 5-4 6v3h-2v7l-2 5v7l-2 9v7l4 7v2l3 1-1 1 2 1v5l-4-2-9-12-4-8-2-8v-10l2-10 4-9 6-10 9-11 6-7-6 5-9 11-2-2 1-3h3l2-5 4-6 3-2 6-7 11-9 2-3h2v-2h2l2-4 9-11z" fill="#5A21DA"/>
<path transform="translate(685,451)" d="m0 0 3 4 3 8 4 7 1 6 2 3v3h2l4 13 1 8 1 1v7l-4 13-6 11-5 8-2 1-1 3h-2l-1 4-2 1-3 5-16 16h-2l-1 3-3 1 1-4 5-5 9-10 4-9h2l1-4 5-10 4-13 1-5v-4h2l-1-9v-10l-1-1-1-8-3 23-4 15h-1v-16l1-22-1-18 3-1 2 4z" fill="#4D8EF8"/>
<path transform="translate(274,135)" d="m0 0h477l23 3 10 3 7 1 12 5 19 10 13 9 10 9 8 7v3l-7-7-4-2v-2h-7l-14-10-19-10-13-5-6-1-4-1h-2l-2-3-15-3-9-1-20-1-125-1v-1l-36-1v2l-4-1-292-1z" fill="#23269B"/>
<path transform="translate(812,456)" d="m0 0 3 1v2h2l4 9 2 6 1 5-1 8-1 5-2 1-1 10-2 7-3 6h-2l-1 5-1 3 1 3-3 5h-2l-2 6 7-8h2l2-4 3-1-2 5-5 7-2 1-3 5-7 7-1 2h-2l-1 3-6 5h-2l-2 4-21 18-4-1-16 11-5 3-5 2v2l-13 8-25 15-2-1 19-12 14-9 7-5h2v-2l7-4h2v-2l8-6 10-8 6-5v-3l5-7 3-3 6-7 5-4 2-4h2l5-10 3-3 1-5 4-7h2l4-10 3-8 2-7 1-9v-10l-3-10z" fill="#7614C2"/>
<path transform="translate(561,562)" d="m0 0 2 4v2l2 1v3h2v3l2 1-3 2h-108l3-2-1-7 3-3h98z" fill="#2D30B4"/>
<path transform="translate(545,459)" d="m0 0v3l-5 6 1 1 3 1 7-4 2-4 4-3h3l-2 5-11 12-13 11-5 4v5l14 11 2 4 9 9 6 9 5 17-1 3-2-5-2 3-1-3h-6l-6-12-8-10-14-12-5-5-4-7v-8l4-8 8-8 11-9z" fill="#3C4ED8"/>
<path transform="translate(519,278)" d="m0 0 15 1 15 2 24 5 3 1v3l7 2 9 4 7 4 9 4v2l7 2 6 4 1 2 3 1v2h3l1 3 5 3v2l3-1v3l4 2 10 9 2 1v2l4 2 17 17 5 6-1 2-3-2 9 11 9 12 5 6h-3l-10-11-14-19-5-4-4-6-8-7-7-6-5-5v-2l-5-2-18-13-2-1 1-2-8-5-16-8-16-6-17-5-10-3-8-1-3-2-9-2-7-1-12-1h-20l-9 1 1-3 4-1h9l5-1h16z" fill="#5A38EB"/>
<path transform="translate(478,281)" d="m0 0 5 1v2l11-2h15l-2 2h-11l-1 2-6-1v2l2 1-13 2-5 1-1 2-11 1h-4v2l-12 4h-7l-14 7-5 2h-3v2l-3 1-3 3-6 3-8 5h-2v2l-4 1-2 4-4 1v2l-6 2v3l-6 3-1 5-3-1-1 2-2 1-4-4-2 4-3 1v2l-2-1 1-2h2l2-4 7-8h2l1-3h2v-2l10-8 4-3h2v-2l18-12 5-1 1-2 9-3 5-3 11-4 4-2 7-2 13-4z" fill="#7F4BF9"/>
<path transform="translate(126,434)" d="m0 0 1 4 1 10v145l-2 13-2-4 1-2h-2l-1-6v-8l-2-10v-37l-2-23-1-8v-9l2-6 2-33 1-8 1-17z" fill="#0B083F"/>
<path transform="translate(501,326)" d="m0 0h28l12 3 8 1v2h-12l3 2h-8l-4-2-1-1v1h-9l1-2h-2v2l-9 1h-8l-1-2-4-1-4 2 5-1v2l-12 2-18 5-8 4-10 4-1 2-7-1v1l1 2h-2v2l-7 4-3 1v2l-5 2v-3h-2v2l-7 4-5 3-9 9-4 8-4 4 4-3v4l-4 5-4 4-6 11-8 16-4 4-5 4v7l-3 6-2-4v-4h2l1-8 6-12 2-5 5-9 4-7 1-2h2l2-6h2l2-4 8-9 7-8h2l1-3h2v-2h3l1-3 5-2v-2l12-8 8-5 6-2 1-2 10-4 5-1 1-2 11-3 19-4z" fill="#130951"/>
<path transform="translate(201,607)" d="m0 0 6 4 5 6 10 8 10 6v3l5 1 15 7-1 2 26 10 2 3 15 5 14 4 3 3 10 2 13 2 4 2v3l15 2-1 2h-9v3l24 3 11 2 23 2-2 2 5 1 13 1 2 1v2l9 1v1h-41v-3-2h-13l-6-1v-1l6-1-17-2-14-2-2-2-20-4 2-4h3v-2l-16-3v-2l-13-4-12-3-5-2v-2l-20-7-9-4-6-4v-2l-5-2-9-6-13-9-10-9-6-5z" fill="#8E1ED9"/>
<path transform="translate(293,634)" d="m0 0h6l7 3 9 2v2l9-1-1 2h9l30 5 22 2h32l12 2h28l25-2h5l1 2-2 2-27 3-17 1h-51l-42-4-32-6-4-2-12-4v-2l-4-1-2-2z" fill="#8D33F3"/>
<path transform="translate(336,509)" d="m0 0 2 4-4 24-2 6h-2l-1 6 2 13 4 11-1 2-5-8-4-12-2 1-1 3-2 1-2 13 1 3-1 4 3 2v3l3 5 4 2 5 7 5 2 2 4 6 2 4 4-4 1-16-8-8-5-1-2-3-1-7-8-4-5-3-5 1-6-1-4 2-3 1-5h2l1-5h3l1-4h2l2-6 3-7 4-2 4-9 5-10z" fill="#4971F3"/>
<path transform="translate(504,269)" d="m0 0h27l16 2v2h8l9 2 6 2-1 2-13-2-25-3h-29l-24 3-25 6-20 7-12 6-11 6-16 10-14 11-14 12-9 9-6 8h-2l-2 4-12 16-10 16-10 18-4 8-3 8-3 7-1 3h-2l-1 2 1-6 9-20 12-23 11-17 8-11 8-10 11-12 10-10 11-9 18-13 13-8 17-8 22-9 12-3 12-2 10-2z" fill="#D856FB"/>
<path transform="translate(570,136)" d="m0 0h68v1l93 1 20 1 21 3 3 1-1 3v-2h-11l-19-2-5-1-4 1-5-1-3 1-6-1h-22l-4-1-31 1h-32l-32-1-10 1-8-1-2 1h-13l-5-1-22 1h-27l-3-1h-221l-3 1-1-1-11 1-5-1-1 2h-13v-1l13-2 12-1h290z" fill="#1B1D5E"/>
<path transform="translate(438,299)" d="m0 0h5v2l-20 9-19 12-16 12-7 6-1 2h-2l-1 3-5 4-8 10h-2l-1 4-8 11-2 1-6 11-9 16-7 16-5 10-2 6-5-1 1-4 2-4 1-10 5-12 8-15 4-6 6-11h2l2-6 4-4 4-7 8-6h2l1-2 3-2v-3l4-2 4-1v-3l3-2h3v-2l5-3 3-3h2v-2l10-6 6-3h2l1-3h3v-2l14-6z" fill="#5C51F1"/>
<path transform="translate(689,483)" d="m0 0h1v10l2 1v19l-1 5-3 10-4 12-3 6-2 3h-2l-1 6-11 13-4 5h-2l-1 4-12 8-7 6-8 4-2-1 13-11 7-7 6-8 3-7 5-7 8-17 8-24 2-25 2-3-1 33 4-16 2-17z" fill="#3344CF"/>
<path transform="translate(760,580)" d="m0 0 3 1-2 6-5 5-22 14-11 8-30 19-5 1-3 3-10 4-5 3h-6l-16 8-25 10-3-1 16-7 23-11 3-2-15 7-4-1 16-8 14-8h2v-2l8-3 10-6 3 1 22-13 14-9h2v-2l6-4 10-6z" fill="#8B1CD6"/>
<path transform="translate(464,424)" d="m0 0h95l-1 10-2 7-4-1-3 1-1 4-1-2-2 2h-2l-7 3-2 2h-4l-7-8-5-4-2-5-2-1v-1h-12l-2-2 17-1h-52z" fill="#070522"/>
<path transform="translate(249,643)" d="m0 0 6 1 16 6 26 7 15 3-1 3h7l23 4 15 2 2 1 27 2 23 1-2 2 9 1 1 2 4 1v3l-24 2 9 1 4 1h12l4 2v1l-11 1-37-2-6-2-5-1v-2l12-1-7-3-3-3-18-2-4-2-2 1v-3l-13-1-21-4-6-3-27-7-21-8-7-3z" fill="#CB39F8"/>
<path transform="translate(492,268)" d="m0 0h37v1l-25 1-18 2-19 3-9 3-8 2-29 12-11 6-16 10-13 10-14 12-13 13-9 11-14 20-12 20-11 22-6 16 1 3-6 16-6 17-2-1-1-2 12-36 3-7 4-12 1-4h2v-3h3l1-6 6-10 6-11 11-16 10-14 5-5 5-6 4-4 5-4 1-2h2v-2l5-5 4-1v-2l8-7 4-3h3v-2l10-6 4-3 8-5 10-3 7-3h3v-2l2-2 5-1 13-4 5-2 19-3z" fill="#9131F2"/>
<path transform="translate(655,566)" d="m0 0v3l-8 10-9 9-14 10-14 9-4 1-3 3-18 8-21 8-33 9-32 6-19 2h-7v-1l-7-1 1-2-8-1v-1l24-1 7-1 7-2 23-3 19-3 17-2v-2h5v-2l10-2 15-7 10-4 15-9 14-7 4-3h3l1-3 5-2v-3l5-3 5-5z" fill="#321FAD"/>
<path transform="translate(468,409)" d="m0 0h91v2l2 1-9 2 2 2-6 2-7 3h-45l-11-2-1-2-4-2v-1l-12-2z" fill="#1B1C8C"/>
<path transform="translate(582,622)" d="m0 0h8v2h-3l-1 2h-4v2l-11 4-7 3-9 1v2l-15 4-12 1v2l-31 6-6 1h-9l4-2-17 1-21 1h-22l-12-2-29-2-1-2h51l34-1 1 2 20-1 12-2 17-3 13-2 4-2 17-4 17-5 9-4z" fill="#7924E4"/>
<path transform="translate(895,403)" d="m0 0h1l1 15-1 4h2l1 9 2 35v31l-1 18-2 7v4l-1 4v6l1 3h-2l1 3-1 20h-1l-1-41-1-5h-1v-85h1l1-7z" fill="#0B083F"/>
<path transform="translate(276,458)" d="m0 0h2l-2 10-3 11-3 6-2 1 1 3-4 5-4 1-1 5-3 1v2l-4 2-2 5-5 6h-3v3h-2v2h-2l-2 4-3 3h-5l-1 3-2-1-1 5-6 7-4 2-4 5-1 3-4 4v2h-2v2h-3l1 3-4 2 4-11 6-10h2l2-5 11-12 7-8 8-7h2v-2h2l2-4 5-5 1-5 7-10 7-7 7-11z" fill="#311FAC"/>
<path transform="translate(769,528)" d="m0 0 4 2-3 3-1 4-8 8-11 9-12 10-14 10-2-1 7-6-22 14-14 9-9 5-2-1 11-8 14-10 5-5-1-2h2l1-3 10-8 4-3h2l2-4h2v-2l11-6 5-3h4v-2l6-3 5-3h2z" fill="#CB3AF8"/>
<path transform="translate(296,625)" d="m0 0 9 1 8 3 9 3 24 5 11 2v-1l12 1 10 1-9-2v-1h18l26 1-20-3-9-3 1-3h7l13 3 14 2 9 2 1 1 25 2-1 2-39 1-2 2 7 1v1l-16 1h-30l-7-1 3-2-29-5-28-7-16-5z" fill="#5A38EB"/>
<path transform="translate(589,678)" d="m0 0m-1 1m-3 1h3v2l-6 4-42 12-27 5-20 4-39 5-18 1h-14v-1l8-2 13-1 10-1-4-1-5-1v-1l28-2 32-5 20-4h5l1 2v-3l6 1 2-2v2l26-7 8-3z" fill="#7715C3"/>
<path transform="translate(500,235)" d="m0 0 5 1v1l-26 4-28 8-17 6h-2v3h-5v2l-8 3-4 4-5 1v2l-6 3h-3v2l-8 4h-2l-1 3-8 5h-2l-1 3-11 7-6 7-5 1-1 2h-2l-1 4-1 2-5 1-6 6-5 1 4-6 13-13h2v-2l8-7 9-7h2v-2l19-12 9-6 16-8 25-10 27-8z" fill="#331EAB"/>
<path transform="translate(576,270)" d="m0 0 4 2 12 4 12 5 15 7v2l5 2 16 9 12 7 7 6 4 4 2 5 8 7 5 4 7 8 8 8v2h2l11 14 4 5-1 2-10-10v-2h-2l-7-8-12-12-11-9-10-8-11-8-6-4 2-1 11 7 3 2-1-1-1-4-5-2-10-5-10-7-16-8-9-6v-2l-9-3-18-7z" fill="#841DD6"/>
<path transform="translate(493,276)" d="m0 0h40l27 4 18 5 29 11 1 2-10-3-19-7-17-3-13-3-15-2-14-1-2 1h-20l-1 1h-11l-6 1-13 2-20 6-7 2-14 6-5 2-7 3-14 7-11 8h-2v2l-8 6-6 5-2-1 11-10 15-11 15-9 9-5 15-7 24-8 11-2 14-1z" fill="#8A32F2"/>
<path transform="translate(790,526)" d="m0 0 1 2-2 4h-2l-1 5h-2l-1 4h-2l-2 5h-2l-2 4-3 1v2h-2l-2 4-10 10-1 3-5 4-5 5-6 4-1 2h-2v2l-8 7-3 3-4 5-5 3-5 5-13 8-9 4-12 7-2-1 5-4 7-4h2l-1-3h2l1-3 5-2v-2l12-8 5-4 5-5 22-16 3-1 2-4 5-5 3-5 1-3 7-6h2v-2l8-7 14-14z" fill="#AA23E6"/>
<path transform="translate(642,602)" d="m0 0 3 1v2l-20 9 5-2 3 1-15 7-20 8-15 4-34 11-25 6-32 6-22 3-10 1h-14v-1l29-3 31-5 19-4h3v-3l20-4 7-1v-2l15-4 8-4h4v-2l5-2h3v-2l9-2v-2l11-2 1-2 8-4h3v-2h8l1-2 9-3z" fill="#9635F5"/>
<path transform="translate(890,438)" d="m0 0h1l1 91v191l-2 36h-1v-28l-1-6 1-192z" fill="#1C1A62"/>
<path transform="translate(264,553)" d="m0 0 1 3-2 7v10l3 9 6 9v2h2l6 7 13 8 9 4 21 9 22 6 29 6v1h-11l-8-2-17-2-22-6-15-6-22-11-10-7v-2l-4-2-7-9-3-11v-9l1 2 4 1-1-3 2-7z" fill="#6C80FA"/>
<path transform="translate(328,428)" d="m0 0 1 4-1 5-1 2h-2l-1 9-7 26-3 12-7 16-8 13-9 11-8 10-10 15-3 7-2 4-1 17-3-1-1-5v-12l5-15 12-16 7-10 3-3h2v-3l7-6 6-11 6-15 2-7 3-8 4-16 5-15z" fill="#4E8EF9"/>
<path transform="translate(419,278)" d="m0 0h4v2l-9 4-16 9-1 3-7 4-5 1-1 3-2 1-3 2-4 2-1 2h-3v2h-2l-2 4-4 2-1 4-4 2-4 5h-3l-2 6h-2l-2 4h-2l-2 7-3 4h-2l-2 6-4 9-1 4h-2l-1 4-4 8-2 6-6 12-1 3h-3v3h-2l-1 9-3 2 1-9 3-7-2-1 2-1 2-7 1-2h2l1-6 1-2h2l2-8h2l1-4 3-5 1-4 4-4 3-7 2-1 4-7 3-3 1-5 8-7 15-15h2v-2l10-7 12-9 10-6 16-8h3z" fill="#5C22DB"/>
<path transform="translate(303,510)" d="m0 0h2l-2 6-6 9h-2l-2 5-8 11-5 10-2 7v9l3 12 7 10 6 7 11 8 18 10 25 10 8 3-3 1-25-7-18-8-11-7-9-8-8-7-6-9-3-8-1-13 4-13 7-12 14-17z" fill="#8FE6FC"/>
<path transform="translate(575,330)" d="m0 0 16 7 15 9 13 10 10 9 12 12 10 13 7 11 12 23 7 21 4 18 1 8v17l-2-1-3-25-3-15-1-1v-5l-2-1-3-8-4-10v-3h-2l-2-8h-2l-5-10-4-6-2-6h-2l-5-6-4-6v-2h-3l-2-4-2-1v-2l-4-2-4-3v-2l-5-2-4-4-3-1-4-4-6-3v-2l-6-2v-2l-5-1-15-7v-2z" fill="#2829A8"/>
<path transform="translate(561,562)" d="m0 0 2 4v2l2 1v3h2v3l2 1-3 2h-108l3-2-1-7 3-3h14v1l5 1 2 2 5 2v2h2v2h37l7-1v-1l11-2v-2l4-2-3-2h14z" fill="#3445D2"/>
<path transform="translate(656,577)" d="m0 0 2 1-4 5-10 7-13 8-12 7 21-11 7-4 4-4 8-5 2 1-5 4v3l-5 3h-3v2l-6 2-2 2-6 1-2 4-8 5h-2v2l-7 3h-3l-1 2-6 3h-6v2l-4 2-13 1-4 3-8 1-6 1v-2l16-6 16-7 9-3 1-3 7-3 14-9 8-3 6-4 12-9z" fill="#5E36E9"/>
<path transform="translate(679,368)" d="m0 0h2v2l3 1 1 4 5 2 4 4v2l4 2 9 9 17 12 11 5 15 7 5 2 3 3 16 6-3 1-4-1 7 3v2h2v3l-9-3-10-3v-2h-6l-9-7-13-5-16-8-1-2 5 1v2h4v-2l-5-3-7-3v-2l-4-2-5-4-6-7-5-5-9-11z" fill="#623BED"/>
<path transform="translate(302,654)" d="m0 0 11 1 12 1 17 2 1-2 6-1 17 1 18 2 38 1h9l-4 2-43 1-1 1h-18l-20-1 19 3v1l-22-1-30-4-10-2 3-1v-3z" fill="#AB24E6"/>
<path transform="translate(688,466)" d="m0 0h1l6 21v7h2v6l1 6-1 11-4 17-3 9-2 4h-2l-1 4-2 1-3 5-16 16h-2l-1 3-3 1 1-4 5-5 9-10 4-9h2l1-4 5-10 4-13 1-5v-4h2l-1-9v-10l-1-1-1-8h-1z" fill="#4970F3"/>
<path transform="translate(501,326)" d="m0 0h28l12 3 8 1v2h-12l3 2h-8l-4-2-1-1v1h-9l1-2h-2v2l-9 1h-8l-1-2-4-1-4 2 5-1v2l-12 2-18 5-8 4-10 4-1 2-5-1-2-2-1-2 6-2 1-2 10-4 5-1 1-2 11-3 19-4z" fill="#130952"/>
<path transform="translate(246,589)" d="m0 0 7 4 3 7 2 3 1 3 2 1 3 1v2h2v2l5 2 6 3 12 5v3l-4 1 9 4 22 7 7 2-3 1-1 2-11-4-6-1-5-2-7-1-22-11-9-6-5-3v-2l-3-1v-3l-2-1v-2l-4-2-6-8v-2l4 2 5 5 7 6-5-6v-4h-2l-2-4z" fill="#7E4CF8"/>
<path transform="translate(630,335)" d="m0 0 4 2 12 11 9 8v2h2l9 11 9 10 8 10 9 10 11 9 8 5 19 8 24 9 3 3-8-1-24-7-18-8-13-9-9-9-10-13-9-12-11-13-16-16-10-8z" fill="#6D80FB"/>
<path transform="translate(621,332)" d="m0 0 5 2 9 7 12 11 13 13 11 14 12 16 11 12 4 3v2l-5-1-4-3-2-1v-2l-4-2-4-4v-2h-2l-4-6-5-5-1-3h-2v-2h-2l-10-13-7-8v-2l-3-1-5-6v-2l-3-2v-2h-2v-2h-2l-5-5-3-2v-2h-2z" fill="#4971F4"/>
<path transform="translate(249,623)" d="m0 0 16 8 16 7v2l6 3-2 4-15-3 3 3-1 2-9-2-5-2-6-1v-2l-9-3-6-3 2-1v-3h2v-2l11 1 5 1v-2h-3v-2l-5-2z" fill="#7615C3"/>
<path transform="translate(335,493)" d="m0 0h1l1 16-3 9-4 9-5 10-4 1-2 9h-2l-1 4-2 1-1 3-4 2-2 10-2 1 1 5-2 5-2-1-3-10v-7l3-10 2-4 6-1v-2l3-1 4-7 4-2 1-4 4-8h2l6-19z" fill="#4E8FF9"/>
<path transform="translate(496,295)" d="m0 0h15l26 2 18 3 22 6 26 11 6 4-3 1-16-8-27-9-17-3-16-2h-29l-22 3-26 7-21 9-17 9-6 5-2-1 7-6 16-9 18-8 14-5 9-3 21-4z" fill="#58B2FB"/>
<path transform="translate(538,684)" d="m0 0 3 2 3 1-16 4-19 5-7 1 2 2-32 5-28 2h-9l3-2 32-3 10-2-20 2h-11l-1-3 31-4 17-1 4-1 4 1 5-2 12-3h6l8-3z" fill="#8E1ED9"/>
<path transform="translate(579,341)" d="m0 0h2v2l9 2 10 7 6 3v2h2v2h2v2l4 1v2l4 2 3 2v2l3 1v2h2v2h2v2h2l5 7 5 5 5 7v2h2v4l3 1 1 5h2l4 10-1 2-3-4-4-8-4-3h-3l-4-8 3 1 1 1 1-3h-2l-3-5-1-3-5-2-1 1h-2l-5-6-3-2v-2l-2-1-2-4-5-2-5-5-2-4 1-2h-2l-1 2-4-2v-5l-6 1-9-5v-3l-1-1-4-3z" fill="#130A52"/>
<path transform="translate(739,429)" d="m0 0 10 2 20 8 10 6 4 4-3 2 2 3h-4l-1 4h-2l3 5-5 2-6-8v-3l-4-2v-2h-2l-3-3v-2h-2l-3-4v-2h-3v-2l-5-1v-2l-5-2-2-2z" fill="#5C51F1"/>
<path transform="translate(761,427)" d="m0 0 8 1 15 4 10 5 9 6 9 11-1 2-6-5 3 6 2 8 2 4v12l-2 3-1-10-5-12-4-6-6-7-18-11v-4h-2v-2l-10-3z" fill="#7723E2"/>
<path transform="translate(344,449)" d="m0 0h1l-1 18v42l4 28 1 12-2-1-8-24-3-21v-22l2 4 2-15z" fill="#5AB8FB"/>
<path transform="translate(495,318)" d="m0 0h33l19 3 15 4 6 2v2l4 2-5-1-16-4-12-2-4-1-20-2-32 3-12 3h-7v2l-5 1v2l-6 1-4 3-5 1v-4l3-3 24-8 16-3z" fill="#2E29B0"/>
<path transform="translate(542,508)" d="m0 0 4 2 9 9 7 11 7 16 4 18v12l-3 3-4-2 1-5h-2l-3-6v-4h-2l-3-13h-2l-1-5 6-1h3l-4-14-8-11-9-9z" fill="#5A46EB"/>
<path transform="translate(531,269)" d="m0 0h12l20 4 23 6 12 5 9 4 6 4 16 8 15 10 5 2 5 3 1 3 2 1-1 2-14-9-10-4-5-5-21-10-24-9-14-4 1-2-9-3-13-2v-2l-16-1z" fill="#AA23E6"/>
<path transform="translate(705,628)" d="m0 0 2 1-3 1-1 3-12 7-10 5-10 4-25 12-8 1-22 9-6 1 4-4 20-8 28-13 19-10 6-1 1-3 4 1 8-5z" fill="#7314C1"/>
<path transform="translate(391,336)" d="m0 0 3 1-13 13-7 8-9 11-7 10-6 7-2 6-14 28-4 2-2 4v-10l7-12 2-3 5-9 6-10h2l2-5 4-8 5-5 2-3h2l2-4 2-1 2-3 7-6zm-63 82 2 1-2 1z" fill="#4D8DF8"/>
<path transform="translate(364,572)" d="m0 0 4 2v2h2l1 5h2v2h2l6 8 16 16 7 3 5 3 5 2 10 3 8 3 7 3 3-1 3 2 2-1 1 2 8 1 6 2 6 1 4 1v2l-12-1-17-3h-7l-18-7-17-9-10-8-10-9-9-10-8-13z" fill="#1B1C8B"/>
<path transform="translate(460,409)" d="m0 0h8l7 3 7 2 4 3 1 2 15 1h43l1-2 6-5 7-2v-2h10l2 6-2-1-1 2h-7l-1 5-2 1h-82l-5-4-5-2 1-2-8-2z" fill="#3020AC"/>
<path transform="translate(804,478)" d="m0 0 2 3-3 16-8 17 4-4 8-12 2 1-2 5-12 17-2 3h-2l-2 4-7 8-5 4-1-2-1-3 14-18 1-4-4 4 2-5 5-8 5-10 3-10z" fill="#CC3AF9"/>
<path transform="translate(318,600)" d="m0 0 7 2 1 2 10 4 2 1v2l5 1 18 6 8 1 22 6v1l-10-1-9-2 9 4 7 3v2l6 2-4 1-25-6-10-3-1-3-8-4-3-4-12-5-11-7z" fill="#4B71F4"/>
<path transform="translate(304,622)" d="m0 0 7 1 16 5h7l9 2 12 1 10 2 29 2 12 1 14 2v1h-14l-28-1h-5l8 2-4 1-16-2 1 2-10-2v-2l-7-1v-2l-8-1-27-7-6-3z" fill="#6053F2"/>
<path transform="translate(293,569)" d="m0 0 4 5 5 9 2 4h2l4 4v2l4 2 6 4v3l13 8 11 5 5 5 6 3v2l-9-2-7-3-1-2-15-7-10-6 1-3-1-3-4-2-6-5v-2h-2l-7-11v-2h-2v-6z" fill="#4D8EF8"/>
<path transform="translate(576,270)" d="m0 0 4 2 12 4 12 5 15 7v2l5 2 16 9 4 3v2l5 2v2l2 1 2 4-5-3-7-3-16-10-17-9-4-3v-2l-9-3-18-7z" fill="#7A21DF"/>
<path transform="translate(610,138)" d="m0 0h121l20 1 21 3 3 1-1 3v-2h-11l-19-2-5-1-4 1-5-1-3 1-6-1h-22l-4-1-31 1h-32l-22-1z" fill="#1A1C5D"/>
<path transform="translate(248,557)" d="m0 0 1 4-1 3v13l5 12 5 7 6 4 11 8 13 7-1 2-5-1-2-1v2l9 3 4 3-6-1-10-4-11-6v-2h-2v-2l-3 1-4-5-2-4-2-7-5-2-3-3 4-1-3-7-1-12 2-9z" fill="#6054F2"/>
<path transform="translate(655,566)" d="m0 0v3l-8 10-9 9-14 10-14 9-4 1-3 3-18 8-18 7-3-1 4-2h3l2-4 13-6 10-4 15-9 14-7 4-3h3l1-3 5-2v-3l5-3 5-5z" fill="#351FAE"/>
<path transform="translate(510,249)" d="m0 0h27l26 3 19 4-3 3-10-1-21-3-21-1h-24l2-2h-12v-1z" fill="#871BD2"/>
<path transform="translate(493,276)" d="m0 0h40l27 4 18 5 29 11 1 2-10-3-19-7-17-3-13-3-15-2-14-1-2 1h-20l-1 1h-12l1-4z" fill="#8631F0"/>
<path transform="translate(573,625)" d="m0 0 2 2-11 4-22 6-8 2-5 1-16 3-13 2-10 2h-9l-11-1v-1l11-1 1-1 29-4 28-6 22-6 9-1z" fill="#5A22DB"/>
<path transform="translate(317,400)" d="m0 0 1 3-8 19v5h-2v5l-3 6-2 1v6l-3 11h-2l-1 3h-2l-1 9-2 2-2-1-2 6-3 1v2l-3-1 1-4 9-24 9-27 2-5h1l-1 8-7 18-7 22 2 3 2-9 4-11 7-19 3-7 7-16z" fill="#5D23DD"/>
<path transform="translate(375,303)" d="m0 0 2 1-7 6h-2v2l-8 7-15 15h-2v3h-2l-2 4-12 15-8 12-8 13-6 10-11 23-7 14-1-2 8-19 10-19 13-22 9-14h2l2-5 2-3h2v-2h2l2-5 3-1 2-4 7-8 15-15 7-5z" fill="#9821E1"/>
<path transform="translate(371,325)" d="m0 0 2 1-3 3 1 2-8 7-11 12-1 2h-2l-2 4-12 16-10 16-10 18-4 8-3 8-3 7-1 3h-2l-1 2 1-6 9-20 12-23 11-17 8-11 8-10 11-12z" fill="#D949FB"/>
<path transform="translate(480,698)" d="m0 0h7v1l-17 3-32 3 2 2-31 1-11-1v-1l25-2h-14l-1-1-20-1v-1l40-1 18-1 4 1h10z" fill="#7715C3"/>
<path transform="translate(325,447)" d="m0 0 1 2-4 17-3 12-5 19-8 16-4 6v-3l3-6h-2l-2 5-14 17-9 14-5 4 2-5 10-14 9-11 6-8 8-14 6-15 5-19 4-16z" fill="#59B7FC"/>
<path transform="translate(686,451)" d="m0 0 5 4 3 5v2l4 2 3 9 3 1 4 10 1 14-2 12h-1l-6-28h-2l-4-10-2-6-4-7-2-5z" fill="#52A6FC"/>
<path transform="translate(570,136)" d="m0 0h68v1l-28 1-1 2h-9l-10 1-8-1-2 1h-13l-5-1-22 1h-27l-1-3h58z" fill="#1C1E70"/>
<path transform="translate(272,550)" d="m0 0 1 2-2 7-1 17 3 5 3 7 9 10 13 10v2l5 1 1 2-7-2-14-8-9-8v-2h-2l-7-11 1-20 1-5 3-3z" fill="#51A5FB"/>
<path transform="translate(502,273)" d="m0 0h29l25 3 12 3 14 4-3 1-1 2-23-6-22-3h-40l-17 2h-5l2-2 19-3z" fill="#7F27E8"/>
<path transform="translate(240,510)" d="m0 0h2l-2 4-2 5-4 3-3 5-2 2-1 2-2-1-1 5-6 7-4 2-4 5-1 3-4 4v2h-2v2h-3l1 3-4 2 4-11 6-10h2l2-5 11-12 7-8 8-7h2z" fill="#290C80"/>
<path transform="translate(386,391)" d="m0 0 2 3-3 6 1 1 2-1-2 5-11 22-4 4-5 4v7l-3 6-2-4v-4h2l1-8 6-12 2-5 5-9 4-7 1-2h2z" fill="#140D53"/>
<path transform="translate(295,525)" d="m0 0h2l-2 6-7 11-4 6-2 14v7l3 12 2 4 3 2v2h2l2 5 5 2 3 3v2l4 2 6 4-2 1-11-7-10-9-9-13-3-12v-9l5-14z" fill="#5BBAFC"/>
<path transform="translate(543,630)" d="m0 0h7l-4 2-24 6-23 4-19 2h-7v-1l-7-1 1-2-8-1v-1l33-1h13l7-1 5 1v-2l20-3z" fill="#5611B3"/>
<path transform="translate(419,278)" d="m0 0h4v2l-9 4-16 9-1 3-7 4-5 1-1 3-2 1-3 2-4 2-1 2h-3v2h-2l-2 4-4 2-1 4-4 2-4 5-5 2-5 4 2-4 20-20h2v-2l10-7 12-9 10-6 16-8h3z" fill="#591FD5"/>
<path transform="translate(487,255)" d="m0 0h8l-4 2-21 4-17 4-15 5-10 3-7 4-6-1 3-3 24-10 16-5 6-2 4 1h8z" fill="#771FDA"/>
<path transform="translate(482,329)" d="m0 0 4 1-5 6-15 4-8 4-10 4-1 2-5-1-2-2-1-2 6-2 1-2 10-4 5-1 1-2 11-3z" fill="#130B51"/>
<path transform="translate(464,301)" d="m0 0 3 2-16 6-12 5-17 8-14 9-11 8v-3l9-8 7-5 1-3 14-7 4-3 6-2 13-2z" fill="#51A5FB"/>
<path transform="translate(492,268)" d="m0 0h37v1l-25 1-18 2-19 3-9 3-8 2-17 7-3-1h2l1-3h2v-2l2-2 5-1 13-4 5-2 19-3z" fill="#9331F1"/>
<path transform="translate(500,235)" d="m0 0 5 1v1l-26 4-28 8-17 6-18 7-11 6-3 2h-3v2l-6 2v-2l9-6 16-8 25-10 27-8z" fill="#4517B0"/>
<path transform="translate(439,365)" d="m0 0 4 2-12 7-10 8h-2v2l-8 7-1 2h-2v2h-2l-2 4-11 15-8 13-6 14-2 1 3-11h2l1-6 5-10 10-14 12-13 5-5 8-7 11-8z" fill="#140954"/>
<path transform="translate(505,255)" d="m0 0h15l9 2 12 1 1 2 20 5 5 1 1 2 5 2-4 1-21-5-8-1-5-3-10-1-9-1h-2-2v-2h-11v-2z" fill="#7715C3"/>
<path transform="translate(703,415)" d="m0 0 4 1 18 8 13 4 5 5 7 4v2h3l3 5h-3l-4-2-5-2-13-7-3-1v-2l-7-2-7-5-5-1-4-3-2-1z" fill="#4971F4"/>
<path transform="translate(812,465)" d="m0 0 4 5v14l-4 13-3 4-2-2-8 12-3 4-2-1 8-17 3-16h1l1 14 3-8 1-6v-15z" fill="#AC24E7"/>
<path transform="translate(205,615)" d="m0 0 7 6 11 9 16 10 6 4v2l5 1 5 6-9-3-17-9-8-7-8-6-5-5-2-1z" fill="#7715C3"/>
<path transform="translate(558,635)" d="m0 0h6l-2 2-6 2-1 2-22 6-41 8-22 3-10 1h-14v-1l29-3 31-5 19-4h3v-3l20-4 7-1v-2z" fill="#9C2FF0"/>
<path transform="translate(504,269)" d="m0 0h27l16 2v2h8l9 2 6 2-1 2-13-2-25-3-18-1v-1h-27v-1z" fill="#CC3AF9"/>
<path transform="translate(762,402)" d="m0 0 8 2 19 6 14 5-2 2 10 6 5 2v3l-5-1v-2l-4-1-14-7-9-3-16-6-5-2-2-3z" fill="#5711B3"/>
<path transform="translate(817,796)" d="m0 0h3l3 4 4-1 1 1 2-2 3 2-1 4-6 2 2 6-4-2-3 1v2h-3l-1-4-5-1-1 7-1-3-1 2-3-1 1-2h3l-1-7v-1l4-1 2-2 3-2z" fill="#090718"/>
<path transform="translate(359,564)" d="m0 0 2 1 6 12 8 11 13 14 13 10 4 4-2 1-11-7-5-3-17-17-7-9 1-3 2 2-7-13z" fill="#2E2EB4"/>
<path transform="translate(597,673)" d="m0 0h5l-14 7-11 3-8 3-13 4-15 4-6 1-5-2 3-2 25-6 30-9z" fill="#8C1DD7"/>
<path transform="translate(665,419)" d="m0 0 5 5 7 21 4 18 1 8v17l-2-1-3-25-3-15-1-1v-5l-2-1-6-16z" fill="#2E28B0"/>
<path transform="translate(724,413)" d="m0 0 10 3 29 10 1 2 10 4v2h2v3l-9-3-10-3v-2h-6l-9-7-13-5-5-2z" fill="#5A38EA"/>
<path transform="translate(467,424)" d="m0 0h92v3l-3 1-1-1-88-1z" fill="#090718"/>
<path transform="translate(674,364)" d="m0 0 5 4 11 14 2 4 4 2 4 4v2l4 2 5 4v2l9 3 4 3-1 2 4 2-5-1-3-1v-2l-7-1-9-6-8-11-9-11-9-12z" fill="#5B4CF0"/>
<path transform="translate(316,618)" d="m0 0h7l18 6 10 2-8-3 3-1 19 6 25 6 4 2-13-1-23-4-23-6-12-3-7-3z" fill="#59B7FC"/>
<path transform="translate(348,535)" d="m0 0 2 1 11 33 7 12-1 2-9-12-8-14-3-9 1-4-1-7z" fill="#3342CD"/>
<path transform="translate(342,480)" d="m0 0h1l1 29 4 28 1 12-2-1-8-24 1-2z" fill="#4971F4"/>
<path transform="translate(246,523)" d="m0 0v3l-8 8-10 14-3 5-4 13-3 21-2-4v-13l3-11 3-10 3-1 2-6h2v-2l5-5 7-8z" fill="#6F24E1"/>
<path transform="translate(480,320)" d="m0 0h9v1l5 1v1l-11 1-12 3h-7v2l-5 1v2l-6 1-4 3-5 1v-4l3-3 24-8z" fill="#2B2BAF"/>
<path transform="translate(470,550)" d="m0 0 1 4 4-1 1 5v2l23 1v2l-3 1h-32l2-11 4-1z" fill="#0B083F"/>
<path transform="translate(610,138)" d="m0 0h86l-1 2-31 1h-32l-22-1z" fill="#1B1D5E"/>
<path transform="translate(480,409)" d="m0 0h63l1 3-16 1h-28l-1-1-6 1-6-1v-1l-7-1z" fill="#250C7A"/>
<path transform="translate(386,629)" d="m0 0h7l13 3 14 2 9 2 1 1 15 1v1h-18l-5-1-16-1-12-2-9-3z" fill="#5A26DD"/>
<path transform="translate(760,582)" d="m0 0 2 1-1 5-14 10-14 9-16 11-2-1 5-6 4-2 7-5 7-4 13-11 4-1 1-3z" fill="#7715C3"/>
<path transform="translate(677,632)" d="m0 0h3v2l-8 2 1 2 3 1-4 4-4 1-5 1-20 9-20 8-3-1 16-7 23-11 4-2 4-4z" fill="#8F1ED9"/>
<path transform="translate(218,581)" d="m0 0h2l4 13 8 11 5 5 5 3 6 5-2 4-10-8-7-6-7-10-4-8z" fill="#831BD2"/>
<path transform="translate(257,541)" d="m0 0 1 2-6 13-1 3v17l4 10 11 14 1 2-4-2-6-4-7-11-3-8v-13l5-14z" fill="#6B84FB"/>
<path transform="translate(539,250)" d="m0 0h10l25 4 8 2-3 3-10-1-21-3-15-1v-1h12v-2h-6z" fill="#7715C3"/>
<path transform="translate(307,586)" d="m0 0 4 1 7 7v2l4 1v2l5 2 12 7 7 3 9 3 9 4-3 1-18-6-5-2v-2l-6-2-7-3v-2l-5-1-3-3-7-5z" fill="#55AAFB"/>
<path transform="translate(421,276)" d="m0 0h2v2h-4v2l-19 9-16 10-6 5h-5l5-5 14-10 17-9 6-3z" fill="#831FDB"/>
<path transform="translate(616,302)" d="m0 0 5 1 12 6 16 11 10 7v2l4 2 10 9-1 2-6-4-5-5-16-12-17-11-12-7z" fill="#7323E2"/>
<path transform="translate(156,208)" d="m0 0 1 4-1 4h-2v2h-2v3h-2l1 6-3 3-6 15-1 9h-2l1 4-2 6-1 13-1 8h-2v-9l4-25 5-16 7-17z" fill="#0C0940"/>
<path transform="translate(356,370)" d="m0 0 1 3-5 9-2 1-4 8-5 8-2 6h-2l-7 13-1-3 10-21 8-13 4-7z" fill="#6D80FB"/>
<path transform="translate(515,638)" d="m0 0h5v2l-11 4-13 2-6 1h-9l-11-1v-1l11-1 1-1 29-4z" fill="#6422DD"/>
<path transform="translate(551,682)" d="m0 0h2l1 5-21 5h-3v2l2 1-3 2v-3l-20 4h-9l2-2 15-3 25-6 6-1 1-3z" fill="#AA23E6"/>
<path transform="translate(751,429)" d="m0 0h6v2l6 1 13 5 5 3 1 7-20-10-8-3v-3z" fill="#7F4BF9"/>
<path transform="translate(454,409)" d="m0 0h6l1 2 9 3-1 2 5 2v2l2 2h-13l-7-6-2-4-2 2 1-4z" fill="#2D33B6"/>
<path transform="translate(576,270)" d="m0 0 4 2 12 4 12 5 15 7v2l-12-3-9-4-19-7-3-3z" fill="#7715C3"/>
<path transform="translate(805,451)" d="m0 0 4 2 6 8 3 10v7l1 4h-2l1 6h-2l1 4-1 3-2-1v-7l1-3v-14l-3-4-2 1-2-4-2-8z" fill="#8C1ED9"/>
<path transform="translate(502,324)" d="m0 0h23l5 1 13 2 8 2-2 2-9-1-12-3h-27l-19 3-5 1-1-2 12-3 11-1z" fill="#290C80"/>
<path transform="translate(684,484)" d="m0 0 4 2v9l-3 17-3 11h-1v-16l2-21z" fill="#4971F4"/>
<path transform="translate(362,620)" d="m0 0 11 2 12 3 14 1 14 3v1h-7l-1 3-14-3-10-2-9-4-10-3z" fill="#3545D2"/>
<path transform="translate(391,336)" d="m0 0 3 1-13 13-7 8-9 11-7 10-3 3 1-4 5-9 5-7h2l2-4 2-5 4-2z" fill="#51A4FB"/>
<path transform="translate(500,271)" d="m0 0h21v1l-37 4-13 2v-1h-9l2-2 18-3z" fill="#DB4AFB"/>
<path transform="translate(364,408)" d="m0 0 1 2-5 12-6 14-6 24h-1l-1-9 9-27 7-15z" fill="#3241C9"/>
<path transform="translate(361,578)" d="m0 0 5 5 8 10 5 5v2l4 2 2 5h-3v-2l-5-2-5-5v-2l-4-2-3-3 1-4-5-2z" fill="#1B1D8D"/>
<path transform="translate(194,567)" d="m0 0 2 4v17l4 13 4 6-1 2h-1l-1 2-5-8-4-13-1-7 1-9z" fill="#7715C3"/>
<path transform="translate(311,661)" d="m0 0h8l23 3 19 2v1l-5 1v1l-15-1-30-5z" fill="#DE4DFC"/>
<path transform="translate(303,417)" d="m0 0h1l-1 8-7 18-7 22 2 4-4 7h-2v2l-3-1 1-4 9-24 9-27z" fill="#6D22E0"/>
<path transform="translate(465,276)" d="m0 0h7l-1 2-24 7-14 5-2-1 5-3 1-2 15-6z" fill="#D757FB"/>
<path transform="translate(249,643)" d="m0 0 6 1 16 6 26 7 15 3-1 2h-7l-27-7-21-8-7-3z" fill="#D847FB"/>
<path transform="translate(347,390)" d="m0 0 1 2-8 16-5 9-1 5h-2l-2 4v-10l7-12 2-3 5-9zm-19 28 2 1-2 1z" fill="#4D86F7"/>
<path transform="translate(201,607)" d="m0 0 6 4 5 6 10 8 10 6-4 2-5-2-11-9-10-9z" fill="#871BD2"/>
<path transform="translate(512,579)" d="m0 0h17l8 1v1l-19 1-7 2-13-1-7-1-17-1v-1z" fill="#08062F"/>
<path transform="translate(422,360)" d="m0 0h2l1 5-5 2-1 2-5 1-2 4-6 5-2 5-4-1 3-1 1-5v-3l3-3h2l1-3 9-5 3-1z" fill="#10094C"/>
<path transform="translate(373,307)" d="m0 0h2l-1 4h-3v2h-2l-2 4-4 2-1 4-4 2-4 5-5 2-5 4 2-4 20-20h2v-2z" fill="#591DCF"/>
<path transform="translate(397,379)" d="m0 0h3l-2 6-5 5 4-3v4l-4 5-7 6-2 2 1-6 4-10z" fill="#140A54"/>
<path transform="translate(334,322)" d="m0 0h2l1 3-7 8-2 4-5 5h-3l-2 5-9 12-1-3 11-15 3-5h2l2-5z" fill="#2F199F"/>
<path transform="translate(317,366)" d="m0 0 3 1-7 10-7 13-9 17-9 20-2 1 3-9 7-16 10-19 8-13z" fill="#8320DA"/>
<path transform="translate(279,639)" d="m0 0 10 1 17 7v3l-9-1-11-2 1-4-6-2z" fill="#7922E2"/>
<path transform="translate(634,384)" d="m0 0 4 2 7 10v2h2v4l3 1 1 5h2l4 10-1 2-3-4-4-8-4-3h-3l-4-8 3 1 1 1 1-3h-2l-3-5-1-3h-2z" fill="#150C55"/>
<path transform="translate(406,355)" d="m0 0 3 1-30 30 1-5 10-11 14-14z" fill="#2E3DC0"/>
<path transform="translate(501,251)" d="m0 0h6l-4 3-27 4h-10l4-3 16-3z" fill="#9322E1"/>
<path transform="translate(492,268)" d="m0 0h37v1l-25 1-18 2-10 2h-8v-1h5l1-3 7-1z" fill="#9F2AEC"/>
<path transform="translate(806,204)" d="m0 0 5 2v2l2 1 1 5-5 4-6-1v-3l-2-1 2-5z" fill="#101048"/>
<path transform="translate(579,341)" d="m0 0h2v2l9 2 10 7 6 3v3h-2v-2l-8-1-5-1-7-4v-3l-1-1-4-3z" fill="#150F54"/>
<path transform="translate(347,478)" d="m0 0h1v12l-1 1v31l2 10-1 3-2-5-2-12v-13l1-23z" fill="#3025B1"/>
<path transform="translate(599,354)" d="m0 0 5 2v2l4-1v2h2l3 5 7 6 1 3-1 2-3-1v-2l-5-2-5-5-2-4 1-2h-2l-1 2-4-2z" fill="#130B51"/>
<path transform="translate(785,513)" d="m0 0 2 2-8 10-9 10v-3l2-2h-4v-3l5-5 4-1v-2h2v-2z" fill="#AC24E7"/>
<path transform="translate(741,507)" d="m0 0v3l-3 4h-2v2l-6 5-5 7h-2l-2 4-2 2-4 2 2-4 10-13 7-8 5-3z" fill="#52A6FC"/>
<path transform="translate(386,391)" d="m0 0 2 3-3 6 1 1 2-1-2 5-3 6-3 5-1-4 1-2h-3v3h-2l1-5 5-9 1-2h2z" fill="#140C54"/>
<path transform="translate(650,395)" d="m0 0 6 2 13 25-1 3-2-4-2 1v-3h-2l-2-8h-2l-5-10-3-4z" fill="#2D2CB0"/>
<path transform="translate(435,285)" d="m0 0 2 1-5 4-2 2-13 6-7 4-8 1 3-3 16-9z" fill="#DA56FB"/>
<path transform="translate(196,158)" d="m0 0 6 1 1 3-6 4h-3v-2l-10 6-15 14-3 2 2-4 12-12 13-10z" fill="#1B1D7F"/>
<path transform="translate(630,612)" d="m0 0 3 1-15 7-20 8-6 1 2-2 9-4-1-2 17-6 9-2z" fill="#CC3AF9"/>
<path transform="translate(679,446)" d="m0 0 2 1 3 11 2-3 1 9v12h-1l-2-8-2 1-3-12-2-10z" fill="#52A4FB"/>
<path transform="translate(369,418)" d="m0 0 2 2-7 15-2 9-3 9-4 16-2-3 2-10 4-16 4-9 5-12z" fill="#290C80"/>
<path transform="translate(572,420)" d="m0 0h1l-1 10-4 16-7 13h-1l1-7 1-2h2l-1-3 3-5 3-14 1-7z" fill="#3843D0"/>
<path transform="translate(656,577)" d="m0 0 2 1-4 5-10 7-13 8-3 1h-4v-2l16-8 10-8z" fill="#5437E4"/>
<path transform="translate(500,235)" d="m0 0 5 1v1l-26 4-22 6-4-1 3-2 14-4z" fill="#4816B0"/>
<path transform="translate(683,466)" d="m0 0 3 4 1 5h1v11l-1 8h-1l-1-9h-3l-1-18z" fill="#4D8BF8"/>
<path transform="translate(641,660)" d="m0 0h3v2l-28 12-12 2 4-3 18-7z" fill="#861BD2"/>
<path transform="translate(644,402)" d="m0 0 6 5 2 5 2 4 5 5v5l-3 1-2-2-2-5-3-2-5-13z" fill="#140954"/>
<path transform="translate(321,389)" d="m0 0 3 1-9 16-4 8-3 8-3 7-1 3h-2l-1 2 1-6 9-20z" fill="#D342FA"/>
<path transform="translate(365,622)" d="m0 0 9 2 14 6v2l6 2-4 1-13-3v-2h-3v-2l-9-5z" fill="#5C58F2"/>
<path transform="translate(741,590)" d="m0 0m-1 1v3l-4 3h-2v2l-13 8-25 15-2-1 19-12 14-9 7-5h2v-2z" fill="#7715C3"/>
<path transform="translate(458,538)" d="m0 0 1 3-1 6v7l-3 11h-2v10l2 3-4-2-1-4 3-19z" fill="#5B7DF4"/>
<path transform="translate(456,306)" d="m0 0m-2 1h2v2l-24 10-17 9-6 5-2-1 7-6 16-9 18-8z" fill="#5BBAFC"/>
<path transform="translate(556,559)" d="m0 0 3 1-1 4h-41v-1h5l1-2 11 1 3-1h19z" fill="#0C0941"/>
<path transform="translate(428,256)" d="m0 0h4v2h-5v2l-8 3-4 4-5 1v2l-6 3-3-1 1-3 7-4 12-6z" fill="#2C1596"/>
<path transform="translate(412,300)" d="m0 0 3 1h-2l1 3-4 1-10 5-11 8h-2v2l-8 6-6 5-2-1 11-10 15-11z" fill="#802AEA"/>
<path transform="translate(659,581)" d="m0 0 2 1-5 4v3l-5 3h-3v2l-6 2-2 2-6 1v2l-3-1 5-4 11-6 4-4z" fill="#5D58F2"/>
<path transform="translate(342,480)" d="m0 0h1l1 54h-2l-3-12h1z" fill="#4C86F7"/>
<path transform="translate(349,352)" d="m0 0 3 1-1 3h-1v2h-2l-2 4-3 3h-2l1 3-2 2-1 2h-2l-1 2-6 8v3h-3l-1 3-1-2 12-18z" fill="#7F28E8"/>
<path transform="translate(495,318)" d="m0 0h28v1l-8 1v1l-14 1h-13l-1-3z" fill="#292DAD"/>
<path transform="translate(296,620)" d="m0 0 10 3 11 4 28 7v2l-11-2-16-4-15-5-7-3z" fill="#5D52F1"/>
<path transform="translate(567,304)" d="m0 0 7 1 20 8 14 7 1 2-5-1-14-7-24-8z" fill="#59B5FC"/>
<path transform="translate(900,145)" d="m0 0 4 2 1 5-2 4-3 2-5-1-1-4z" fill="#100C32"/>
<path transform="translate(610,594)" d="m0 0 2 1-1 2 4-2v3l-4 1v2l-8 5-7 1-1-2h2v-2l11-7z" fill="#1D1989"/>
<path transform="translate(457,439)" d="m0 0 2 2 4 11 4 10 9 10 4 5-4-2-9-9-8-13-3-7z" fill="#597DF1"/>
<path transform="translate(297,438)" d="m0 0 2 4-2 9-6 17-2-1-1-2z" fill="#8C35F5"/>
<path transform="translate(371,325)" d="m0 0 2 1-3 3 1 2-8 7-10 11-5 2 2-4 11-12z" fill="#DA4CFB"/>
<path transform="translate(259,627)" d="m0 0 6 2 19 8 17 5 2 2h-6l-16-5-16-7-6-4z" fill="#AA25E6"/>
<path transform="translate(343,332)" d="m0 0h2v2h-2v3h-2l-2 4-12 15-7 10-2-1 8-13h2l2-5 2-3h2v-2h2l2-5 3-1z" fill="#9D21E0"/>
<path transform="translate(738,139)" d="m0 0h13l21 3 3 1-1 3v-2h-11l-19-2-6-1z" fill="#1B1D5E"/>
<path transform="translate(487,255)" d="m0 0h8l-4 2-21 4-10 1 1-2-3-2 6-2 4 1h8z" fill="#7919CC"/>
<path transform="translate(248,499)" d="m0 0h2l-2 4-6 7h-2v2l-9 7-6 6-2-1z" fill="#5411B2"/>
<path transform="translate(460,338)" d="m0 0 4 1-6 5-10 4-1 2-5-1 2-5h7v-2l5-2h4z" fill="#11094C"/>
<path transform="translate(664,643)" d="m0 0h4v2l-25 12-4 1 2-4 16-7z" fill="#A222E2"/>
<path transform="translate(480,320)" d="m0 0h9v1l5 1v1l-11 1-10 2h-6v-3z" fill="#2E2EB2"/>
<path transform="translate(386,629)" d="m0 0h7l13 3 1 2-1 2-12-1-9-3z" fill="#5A3AEB"/>
<path transform="translate(542,321)" d="m0 0 9 1 17 5v2l4 2-5-1-16-4-6-2v-2z" fill="#2928A8"/>
<path transform="translate(644,304)" d="m0 0 5 2 7 5 7 7 1 5-9-6-6-7v-2l-5-2z" fill="#7615C3"/>
<path transform="translate(481,299)" d="m0 0 4 1-1 2-24 6-4-1 7-4z" fill="#59B6FC"/>
<path transform="translate(829,798)" d="m0 0 4 2-1 4-8 4h-3l-3-2v-3l10-3z" fill="#090719"/>
<path transform="translate(559,277)" d="m0 0 9 2 14 4-3 1-1 2-23-6-1-2z" fill="#7A24E4"/>
<path transform="translate(365,837)" d="m0 0 2 1-1 2h2l-1 10h-4l-2-2-3-4 2-3 5-1z" fill="#090732"/>
<path transform="translate(665,419)" d="m0 0 5 5 5 14v4l-4-2-6-16z" fill="#2C2AAF"/>
<path transform="translate(611,296)" d="m0 0 6 1 13 7 1 2-2 2-9-5-7-3-2-1z" fill="#6821DB"/>
<path transform="translate(534,274)" d="m0 0 16 1 9 2v1l-5 1-13-1-8-1z" fill="#8127E7"/>
<path transform="translate(372,429)" d="m0 0 1 4-3 7-2 1-4 10-1-3 1-4 1-3v-6z" fill="#120950"/>
<path transform="translate(444,341)" d="m0 0 1 2-6 3h-2l-1 2-11 7-4 3h-2v2l-5 3-1 2-3-1 3-3h2v-2l7-5 2-2 14-8z" fill="#290C80"/>
<path transform="translate(304,622)" d="m0 0 7 1 34 10-4 1-24-6-11-4z" fill="#6B84FB"/>
<path transform="translate(606,349)" d="m0 0 7 2 13 11 1 2-3 1-3-2v-2l-5-2-4-4-3-1z" fill="#2A27A9"/>
<path transform="translate(219,560)" d="m0 0 2 2-2 19-1 6-2-4v-13l2-9z" fill="#7620DC"/>
<path transform="translate(298,515)" d="m0 0 2 1-13 16-9 14-5 4 2-5 10-14 9-11z" fill="#57B1FC"/>
<path transform="translate(332,422)" d="m0 0h2l-1 5-2 6-1 7h-2l-1 6-3 2 1-9 2-3 2-10h2z" fill="#56B0FC"/>
<path transform="translate(228,631)" d="m0 0 4 1v2l5 1 15 7-3 2-6-2-14-7z" fill="#A623E4"/>
<path transform="translate(529,327)" d="m0 0 9 1 6 1 5 1v2h-12l3 2h-8l-2-1v-2l2-1-4-2z" fill="#171258"/>
<path transform="translate(754,404)" d="m0 0 7 1v2l3 1 3 3v3h-2v-2h-5v-2l-4 1-4-3z" fill="#301FAA"/>
<path transform="translate(349,388)" d="m0 0h2l-1 4-14 28-2-1 2-5 8-16z" fill="#51A5FB"/>
<path transform="translate(550,330)" d="m0 0 7 2 9 2 3 1 9 5-1 3-7-4h-3v-2l-11-2-5-1z" fill="#19185B"/>
<path transform="translate(628,375)" d="m0 0 3 1v2l4 2 2 4h2l7 11v2h2l1 5h-2v-4h-2l-8-12-5-4-2-5h-2z" fill="#290C80"/>
<path transform="translate(521,692)" d="m0 0 9 1 2 2-3 2v-3l-20 4h-9l2-2 15-3z" fill="#9F21E1"/>
<path transform="translate(298,632)" d="m0 0 25 7-3 1-1 2-11-4-6-1-4-3z" fill="#804CFA"/>
<path transform="translate(452,409)" d="m0 0 2 1-1 1v12l1 5 2 2v13l-2-3-3-14-1-6v-8z" fill="#5979F0"/>
<path transform="translate(630,384)" d="m0 0 7 4 4 5v3h2v5l-1-2-5-2-7-11z" fill="#0F0948"/>
<path transform="translate(479,526)" d="m0 0v3l-7 11-5 12-1-4 1-5-2-4 4 1 1-3 2-4h2l1-5z" fill="#5B50EE"/>
<path transform="translate(489,488)" d="m0 0 4 2 2 7-7 5-1-6 1-5z" fill="#0C0A3F"/>
<path transform="translate(317,400)" d="m0 0 1 3-8 19v5l-5 1 1-5 3-5 4-10z" fill="#6123DD"/>
<path transform="translate(217,222)" d="m0 0h5v2h2v6l-3 2-3-1v-2l-3-1 1-4z" fill="#181754"/>
<path transform="translate(413,629)" d="m0 0 9 1 5 1-4 3h-8l-9-1v-3z" fill="#2D33B7"/>
<path transform="translate(316,618)" d="m0 0h7l18 6 7 2v1l-9-1-16-4-7-3z" fill="#56AEFB"/>
<path transform="translate(647,587)" d="m0 0 1 3-21 12-8 4-2-1 21-12z" fill="#6690FB"/>
<path transform="translate(419,358)" d="m0 0 1 3h-2l-1 3h-2v2l-5 3-10 10-2-1 7-8h2l1-3h2v-2h3l1-3 5-2z" fill="#191A5C"/>
<path transform="translate(461,334)" d="m0 0 1 3-2 3-9 2v2l-7 1-4 2-1-2 6-2 1-2 10-4 5-1z" fill="#161057"/>
<path transform="translate(249,643)" d="m0 0 6 1 16 6 14 4-4 2-18-6-14-6z" fill="#CC3AF9"/>
<path transform="translate(296,625)" d="m0 0 9 1 8 3 9 3 6 1-1 2-11-2-19-6z" fill="#5A43ED"/>
<path transform="translate(279,610)" d="m0 0 6 2 12 6 7 3-3 1-10-2-4-2-1-3-7-4z" fill="#5E95F9"/>
<path transform="translate(628,596)" d="m0 0m-1 1 1 3-21 10h-2l1-3 7-3 9-6z" fill="#5925D9"/>
<path transform="translate(703,576)" d="m0 0 4 1-15 11-12 8-2-1 11-8 5-3 5-5z" fill="#E252FD"/>
<path transform="translate(340,490)" d="m0 0h1l1 15-1 18-3-3-1-11 2 3z" fill="#51A0FB"/>
<path transform="translate(287,463)" d="m0 0h2l2 6-4 7h-2v2l-3-1 1-4z" fill="#7223E1"/>
<path transform="translate(454,262)" d="m0 0h6l-3 2-19 6-10 3-3-1 16-6z" fill="#7416C6"/>
<path transform="translate(340,609)" d="m0 0 11 3 13 6-3 1-18-6-5-2z" fill="#4E90F9"/>
<path transform="translate(396,387)" d="m0 0 2 1-2 4-7 8-5 4 1-6 3-4h2l1-3 4-2z" fill="#120950"/>
<path transform="translate(377,410)" d="m0 0h3l-1 9h-3l-2 3v-4l-4 1 4-8 1 2h2z" fill="#11094E"/>
<path transform="translate(408,365)" d="m0 0h2v2l-8 7-9 11-5 4v-3h2v-2h2l3-6h2l1-4 8-7z" fill="#290C80"/>
<path transform="translate(625,364)" d="m0 0 4 1 12 12-1 2h-3l-1-4h-3l-2-4-2-1v-2l-4-2z" fill="#2927A7"/>
<path transform="translate(614,347)" d="m0 0 4 2 8 7 6 7h-3l-5-4v-2l-4-2-4-3z" fill="#5BBAFC"/>
<path transform="translate(575,330)" d="m0 0 14 6 3 3v2l-4-1-15-7v-2z" fill="#2B29AD"/>
<path transform="translate(421,276)" d="m0 0h2v2h-4v2l-16 7 2-5 10-5z" fill="#8323E0"/>
<path transform="translate(558,635)" d="m0 0h6l-2 2-6 2-1 2-6 2-9-1 4-2 7-2h4v-2z" fill="#AB37F6"/>
<path transform="translate(394,635)" d="m0 0 12 1 14 2v1h-14l-17-2v-1z" fill="#6D80FB"/>
<path transform="translate(582,619)" d="m0 0 3 1-7 6-8 1-6 1v-2l16-6z" fill="#5A2AE1"/>
<path transform="translate(678,464)" d="m0 0h2l2 7v17l-2-1-2-19z" fill="#3024B0"/>
<path transform="translate(369,331)" d="m0 0h2v2l-3 3h-2l-2 4-7 8h-2l-2 4h-2l2-4 11-12z" fill="#7A29E8"/>
<path transform="translate(450,246)" d="m0 0h4v2l-20 7h-2v-3z" fill="#4318B0"/>
<path transform="translate(816,466)" d="m0 0h1l1 9 1 7h-2l1 6h-2l1 4-1 3-2-1v-7l1-3z" fill="#8021DF"/>
<path transform="translate(547,680)" d="m0 0m6 0 1 2-5 2-1 2-8 1-2-4 5-2h7z" fill="#A121E1"/>
<path transform="translate(772,442)" d="m0 0 6 2 5 5-3 2 2 3-5-2-3-4v-2z" fill="#5B39EB"/>
<path transform="translate(331,653)" d="m0 0h13l5 1v2h-6l-1 3-4-2-7-3z" fill="#9131F1"/>
<path transform="translate(221,563)" d="m0 0 2 1-1 8v10l1 9-2-2-2-8v-10z" fill="#5611B3"/>
<path transform="translate(455,536)" d="m0 0h2v7l-3 10-2-4-1-6z" fill="#0D0B40"/>
<path transform="translate(387,389)" d="m0 0 1 2h-2l-1 4-3 4-7 12-1-3 6-11 5-7z" fill="#290C80"/>
<path transform="translate(697,356)" d="m0 0 5 5 8 10-1 2-10-10v-2h-2z" fill="#7715C3"/>
<path transform="translate(604,286)" d="m0 0 6 1 7 5 9 5 1 2-6-2-13-7z" fill="#8C1ED9"/>
<path transform="translate(737,709)" d="m0 0h2v5l-5 4h-2l1 3h-5l2-5 5-5h2z" fill="#140954"/>
<path transform="translate(246,523)" d="m0 0v3l-8 8-6 8-3 1v-3l5-5 7-8z" fill="#7622E2"/>
<path transform="translate(668,634)" d="m0 0m-1 1m-2 1h2v2l-20 10-4-1 16-8z" fill="#8E1ED9"/>
<path transform="translate(505,255)" d="m0 0h12l-1 3-4 2v-2h-11v-2z" fill="#7415C2"/>
<path transform="translate(501,251)" d="m0 0h6l-4 3-14 1v-2l-3-1z" fill="#9921E0"/>
<path transform="translate(650,416)" d="m0 0h4l5 5v5l-3 1-2-2-2-5z" fill="#10094B"/>
<path transform="translate(709,403)" d="m0 0 8 1 5 4-1 2 4 2-5-1-3-1v-2l-5-1-1-3z" fill="#694FF4"/>
<path transform="translate(404,376)" d="m0 0v3l-1 3-2 1-1 4-5 3h-3l5-5 4-8z" fill="#0D0944"/>
<path transform="translate(422,360)" d="m0 0h2l1 5-5 2-1 2h-6l2-4 5-3h2z" fill="#0F0948"/>
<path transform="translate(469,352)" d="m0 0 4 1-18 8-3-1 1-2z" fill="#140954"/>
<path transform="translate(156,208)" d="m0 0 1 4-1 4h-2v2h-2v3h-2l1 6-2 1-2-1 3-9z" fill="#0B083F"/>
<path transform="translate(303,422)" d="m0 0 1 4-2 6 1 3-3 7h-2v-7z" fill="#9D31F1"/>
<path transform="translate(310,403)" d="m0 0h1v7l-6 13h-1v-6l2-4 2-7h2z" fill="#8C28E9"/>
<path transform="translate(347,478)" d="m0 0h1v12l-1 1v10l-2 3v-22z" fill="#3120AD"/>
<path transform="translate(647,402)" d="m0 0 3 1 1 5h2l4 10-1 2-3-4-4-8-3-3z" fill="#1A1B5D"/>
<path transform="translate(575,337)" d="m0 0 7 2v2l5 1 8 5 1 2-5-1-1-2-9-3v-2l-6-2z" fill="#290C80"/>
<path transform="translate(309,414)" d="m0 0 1 4-4 7-2 7h-2l-1 2 1-6 6-13z" fill="#BF37F7"/>
<path transform="translate(388,372)" d="m0 0 2 3-10 11-1-4z" fill="#2E39BE"/>
<path transform="translate(561,336)" d="m0 0 6 1 7 3-2 1-1 3-5-2h-2l1-4h-2v2l-2-1z" fill="#130952"/>
<path transform="translate(464,324)" d="m0 0 4 1 3 2h-7v2l-5 1v2h-3l2-4 3-3z" fill="#2C27AC"/>
<path transform="translate(464,301)" d="m0 0 3 2-16 6h-6v-2l8-2z" fill="#5098FA"/>
<path transform="translate(487,255)" d="m0 0h8l-4 2-17 3h-5l2-2z" fill="#6216C3"/>
<path transform="translate(414,637)" d="m0 0h8l13 2v1h-26v-1l5-1z" fill="#5B4EF0"/>
<path transform="translate(626,590)" d="m0 0 3 1-7 5-8 4-3-1 4-2 4-4z" fill="#251083"/>
<path transform="translate(304,578)" d="m0 0 3 3 2 5v3l1 2-4-2v-2h-2l-3-5h3z" fill="#51A1FB"/>
<path transform="translate(374,389)" d="m0 0 3 1-9 15h-1l1-7z" fill="#303EC6"/>
<path transform="translate(537,331)" d="m0 0h13v3l-5 2-5-1v-2l-4-1z" fill="#10094C"/>
<path transform="translate(194,246)" d="m0 0 4 1 1 3h-2v6l-5-1-1-3h2z" fill="#070527"/>
<path transform="translate(236,519)" d="m0 0 4 1-4 7-3 1-2-1 1-3z" fill="#341EAD"/>
<path transform="translate(455,259)" d="m0 0h7l-2 3-15 3 3-4z" fill="#8923E0"/>
<path transform="translate(656,577)" d="m0 0 2 1-4 5-7 5-1-4z" fill="#5660F2"/>
<path transform="translate(622,449)" d="m0 0 4 1v5l-2 2-5-1 1-5z" fill="#090733"/>
<path transform="translate(406,301)" d="m0 0h2l-1 3-8 5-4-1 5-5z" fill="#D95CFB"/>
<path transform="translate(500,235)" d="m0 0 5 1v1l-17 3-5-1 4-2z" fill="#331EAD"/>
<path transform="translate(196,158)" d="m0 0 6 1 1 3-6 4h-2l-1-5z" fill="#1B1D6F"/>
<path transform="translate(226,819)" d="m0 0 1 3 5 1-1 5-4 1-2-4z" fill="#090719"/>
<path transform="translate(364,432)" d="m0 0 3 1-1 2v7l-3 6-2-4v-4h2z" fill="#181459"/>
<path transform="translate(662,411)" d="m0 0 3 3 4 8-1 3-2-4-2 1v-3h-2l-1-6z" fill="#2927A8"/>
<path transform="translate(336,412)" d="m0 0 1 2-2 5-1 3h-2l-2 4v-9l3-1v-2zm-8 6 2 1-2 1z" fill="#5488F8"/>
<path transform="translate(523,318)" d="m0 0 7 1 1 2h-15l-4-2z" fill="#3034BC"/>
<path transform="translate(435,285)" d="m0 0 2 1-5 4h-3l-10 5-3-1 14-7z" fill="#D749FB"/>
<path transform="translate(618,326)" d="m0 0 4 2 9 6-1 2-5-2-4-2z" fill="#608DF9"/>
<path transform="translate(280,479)" d="m0 0 1 2-6 11h-2l-1 3h-2l2-4 6-9z" fill="#5A22DB"/>
<path transform="translate(665,419)" d="m0 0 5 5 3 9h-2v-2l-4-2-2-5z" fill="#2D2FB3"/>
<path transform="translate(610,361)" d="m0 0 4 1v2l4 2 3 2v2l3 1 1 3h-2v-2h-3l-5-5z" fill="#1B1D5E"/>
<path transform="translate(603,292)" d="m0 0 5 1 4 3-1 3 5 2-2 1-6-3-1-2-3-2 1-1z" fill="#7729E7"/>
<path transform="translate(447,282)" d="m0 0v3l-14 5-2-1 6-4z" fill="#D969FB"/>
<path transform="translate(531,269)" d="m0 0h12l10 2 2 2-2 1-6-1v-2l-16-1z" fill="#A825E8"/>
<path transform="translate(220,626)" d="m0 0 5 1 7 4-4 2-5-2z" fill="#941ED9"/>
<path transform="translate(464,521)" d="m0 0 2 1-3 8h-3l-2 5h-2v-4l4-2 2-4z" fill="#0C0A3E"/>
<path transform="translate(679,446)" d="m0 0 2 1 1 8v5h-2l-3-13z" fill="#54A8FB"/>
<path transform="translate(439,365)" d="m0 0 4 2-12 7-2-1 8-7z" fill="#130952"/>
<path transform="translate(784,823)" d="m0 0 7 1 2 3-6 2h-3z" fill="#090718"/>
<path transform="translate(619,669)" d="m0 0m-3 1h3l-1 3-11 3-3-1 8-4z" fill="#8A1CD5"/>
<path transform="translate(515,638)" d="m0 0h5v2l-4 2h-11v-2z" fill="#6622DE"/>
<path transform="translate(473,511)" d="m0 0 2 3-7 8h-1v-5l4-5z" fill="#0D0B39"/>
<path transform="translate(492,498)" d="m0 0 2 1v3l-5 2v2l-3 1-2-2z" fill="#5568EC"/>
<path transform="translate(248,499)" d="m0 0h2l-2 4-6 7h-2v2l-3 1 2-4z" fill="#4E14B1"/>
<path transform="translate(802,471)" d="m0 0 4 2 1 8-3-2-2 2-1-4z" fill="#AC24E7"/>
<path transform="translate(305,386)" d="m0 0 3 1-6 10-3 6-2 1 2-6z" fill="#871FDA"/>
<path transform="translate(406,355)" d="m0 0 3 1-7 6-2-2z" fill="#2F39BE"/>
<path transform="translate(350,330)" d="m0 0 1 2-2 4h-2l-2 4-3-1 1-5h3z" fill="#5C21D9"/>
<path transform="translate(418,296)" d="m0 0h6l-1 3-7 3-3-1z" fill="#8C34F4"/>
<path transform="translate(451,280)" d="m0 0 6 1-4 2-5 1h-4l-7 1 3-2 5-2z" fill="#D752FB"/>
<path transform="translate(324,638)" d="m0 0 7 1 3 4h-11l-2-2 3-2z" fill="#804CFA"/>
<path transform="translate(484,506)" d="m0 0h2l-2 4-4 4-2 1-1 2-4 1 6-7z" fill="#4A3DDF"/>
<path transform="translate(528,494)" d="m0 0 8 1v5l2 3-4-2-6-5z" fill="#0B0931"/>
<path transform="translate(325,447)" d="m0 0 1 2-3 11-3 1 2-10 1-3z" fill="#58B4FC"/>
<path transform="translate(306,427)" d="m0 0 2 3-2 6-2 2-2-1 3-9z" fill="#5A22DB"/>
<path transform="translate(572,420)" d="m0 0h1l-1 10-1 2h-2v-8l1-3z" fill="#3842D0"/>
<path transform="translate(634,384)" d="m0 0 4 2 7 10v2h-2v-2h-2l-3-5-1-3h-2z" fill="#1A1B5D"/>
<path transform="translate(369,357)" d="m0 0v3l-1 2h-2l-2 5-4 5-3 1 1-4 5-5 2-3h2z" fill="#4F91F9"/>
<path transform="translate(606,349)" d="m0 0 7 2 4 4v2l-5-2-3-1z" fill="#2D2BAF"/>
<path transform="translate(383,295)" d="m0 0 2 1-4 6-4 2-4-1z" fill="#8220DC"/>
<path transform="translate(406,264)" d="m0 0h2v2l-6 4h-3v2l-6 2v-2l9-6z" fill="#4816B0"/>
<path transform="translate(466,553)" d="m0 0 3 3v6h-2l-1 2h-2z" fill="#0F0C46"/>
<path transform="translate(467,460)" d="m0 0 1 2h2l6 8 4 4h-3l-9-9z" fill="#4A3DE0"/>
<path transform="translate(349,388)" d="m0 0h2l-1 4-5 10h-2l1-4z" fill="#52A6FC"/>
<path transform="translate(612,366)" d="m0 0 4 1 5 5-1 3-3-1v-2h-2l-1-3-2-1z" fill="#11094C"/>
<path transform="translate(579,341)" d="m0 0h2v2l9 2 1 3h-6v-2l-5-2zm4 6 2 2-2 1z" fill="#18165A"/>
<path transform="translate(318,342)" d="m0 0h2l-2 5-9 12-1-3z" fill="#321FAD"/>
<path transform="translate(552,329)" d="m0 0 9 2 7 2v3l-3-1-11-2-3-3z" fill="#290C80"/>
<path transform="translate(247,620)" d="m0 0h4l3 3 5 3 1 3-5-2-8-5z" fill="#8D26E4"/>
<path transform="translate(453,561)" d="m0 0 2 4-1 11-2-1v-10z" fill="#504AE7"/>
<path transform="translate(317,400)" d="m0 0 1 3-5 12-3 1 2-6z" fill="#7027E4"/>
<path transform="translate(639,378)" d="m0 0 5 3 2 2v4l-4-2-2-2z" fill="#2B2BAE"/>
<path transform="translate(459,334)" d="m0 0h2v2l-14 6-2-2 4-2h3v-2z" fill="#290C80"/>
<path transform="translate(568,335)" d="m0 0 7 3 3 2-1 3-7-4h-3z" fill="#1B1D5E"/>
<path transform="translate(245,830)" d="m0 0 3 2-3 3h-2l2 2h-5l-1-5h6z" fill="#0A0818"/>
<path transform="translate(499,641)" d="m0 0h14v2l-5 1-9-1z" fill="#5E22DC"/>
<path transform="translate(511,488)" d="m0 0 2 2 2 10v2h-2v-3h-2z" fill="#0B083F"/>
<path transform="translate(578,340)" d="m0 0 4 5-1 3-8-4 1-3 3 1z" fill="#120950"/>
<path transform="translate(412,322)" d="m0 0 2 1-10 8-4-1 10-7z" fill="#56B0FC"/>
<path transform="translate(334,322)" d="m0 0h2l1 3-5 5-2-3z" fill="#311AA2"/>
<path transform="translate(638,579)" d="m0 0m-1 1m-1 1m-1 1m-1 1m-1 1m-1 1 1 3-1 2-9 2 4-4h3v-2z" fill="#1D1A89"/>
<path transform="translate(755,549)" d="m0 0 3 1-4 4h-2v2l-5 2 2-4z" fill="#DB68FC"/>
<path transform="translate(479,526)" d="m0 0v3l-7 10-1-2 1-4h2l1-5z" fill="#5A53EC"/>
<path transform="translate(345,518)" d="m0 0h2l1 8 1 9-2-1-2-9z" fill="#3132BC"/>
<path transform="translate(654,411)" d="m0 0 3 1 4 9-1 4-6-11z" fill="#290C80"/>
<path transform="translate(630,384)" d="m0 0 7 4 1 3h-2l-1 3-5-8z" fill="#11094D"/>
<path transform="translate(343,332)" d="m0 0h2v2h-2v3h-2l-2 4-4 2 4-7h2z" fill="#AC2AEA"/>
<path transform="translate(561,325)" d="m0 0 7 2v2l4 2-5-1-9-3z" fill="#2B2EB1"/>
<path transform="translate(822,802)" d="m0 0 4 2-2 4h-3l-3-2v-3z" fill="#070521"/>
<path transform="translate(677,632)" d="m0 0h3v2l-8 2v2l-5 2-3-1z" fill="#A622E4"/>
<path transform="translate(332,422)" d="m0 0h2l-1 5-3 7-2-3 1-5h2z" fill="#51A4FB"/>
<path transform="translate(409,329)" d="m0 0m3 0m-4 1m3 0 3 2-12 6 4-6 4-1z" fill="#55AEFC"/>
<path transform="translate(476,239)" d="m0 0h8v1l-14 3-3-2z" fill="#4219AF"/>
<path transform="translate(641,660)" d="m0 0h3v2l-9 4h-2l1-3z" fill="#831ACF"/>
<path transform="translate(229,601)" d="m0 0 7 4 2 1v5l-4-2-5-6z" fill="#5917C3"/>
<path transform="translate(565,447)" d="m0 0 1 3-5 9h-1l1-7z" fill="#4645DC"/>
<path transform="translate(675,441)" d="m0 0 2 4 1 6-2 1-3-6v-4z" fill="#2E2DB3"/>
<path transform="translate(301,437)" d="m0 0h2v8l-2 2h-3z" fill="#5E22DC"/>
<path transform="translate(364,408)" d="m0 0 1 2-3 6h-2l-2 6-1-3 5-10z" fill="#2F3AC0"/>
<path transform="translate(386,391)" d="m0 0 2 3-4 7h-2l-1 2v-5l3-1z" fill="#1A1B5D"/>
<path transform="translate(388,394)" d="m0 0 2 1-1 5-5 4 1-6z" fill="#10094A"/>
<path transform="translate(369,331)" d="m0 0h2v2l-3 3h-2l-2 4-3 2v-3z" fill="#792FEB"/>
<path transform="translate(646,311)" d="m0 0 8 4 1 3 2 1-1 2-7-5z" fill="#9B21E0"/>
<path transform="translate(594,289)" d="m0 0 11 4 1 2-7-1-5-2z" fill="#6222DD"/>
<path transform="translate(582,619)" d="m0 0 3 1-7 6h-4v-2l6-2v-2z" fill="#5A30E5"/>
<path transform="translate(280,617)" d="m0 0 9 3 4 3-6-1-7-3z" fill="#5A41ED"/>
<path transform="translate(353,469)" d="m0 0 2 1v9l-2 5h-1v-12z" fill="#290C80"/>
<path transform="translate(367,436)" d="m0 0 1 4-2 6-2 5-1-3 1-4z" fill="#0C0940"/>
<path transform="translate(644,402)" d="m0 0 6 5 2 8h-2l-5-9z" fill="#0E0946"/>
<path transform="translate(375,303)" d="m0 0 2 1-7 6-3-2 5-4z" fill="#9322E1"/>
<path transform="translate(576,287)" d="m0 0 9 2-3 3-6-2z" fill="#6022DC"/>
<path transform="translate(419,278)" d="m0 0h4v2l-9 4-5 2 5-5 5-1z" fill="#5C22DB"/>
</svg>
